<?xml version="1.0" encoding="utf-8"?>
<!-- Generator: Adobe Illustrator 17.0.0, SVG Export Plug-In . SVG Version: 6.00 Build 0)  -->
<!DOCTYPE svg PUBLIC "-//W3C//DTD SVG 1.1//EN" "http://www.w3.org/Graphics/SVG/1.1/DTD/svg11.dtd">
<svg version="1.1" id="Layer_1" xmlns="http://www.w3.org/2000/svg" xmlns:xlink="http://www.w3.org/1999/xlink" x="0px" y="0px"
	 width="157.68px" height="161.28px" viewBox="0 0 157.68 161.28" enable-background="new 0 0 157.68 161.28" xml:space="preserve">
<rect fill="#232A2B" stroke="#000000" stroke-miterlimit="10" width="157.68" height="161.28"/>
<g>
	<path fill="none" d="M99.613,2.93c19.12,0,38.24,0,57.36,0c0,51.76,0,103.52,0,155.28c-51.84,0-103.68,0-155.52,0
		c0-30.16,0-60.32,0-90.48c0.848,2.574,1.943,5.017,3.791,7.052c4.851,5.345,10.782,8.492,18.073,8.863
		c0.055,0.185,0.163,0.372,0.159,0.556c-0.141,7.489,1.035,14.775,3.48,21.843c3.274,9.465,8.415,17.776,15.717,24.666
		c2.285,2.156,4.808,4.06,7.222,6.079c-2.327,4.034-3.526,8.33-3.093,13.025c0.583,6.326,5.601,9.658,11.569,7.504
		c5.689-2.052,9.347-6.315,11.978-11.586c0.277,0.029,0.558,0.039,0.83,0.091c15.425,2.92,29.711,0.058,42.724-8.688
		c11.429-7.681,19.134-18.277,23.679-31.225c1.355-0.007,2.72,0.085,4.064-0.039c4.163-0.382,8.075-1.516,11.377-4.227
		c4.73-3.883,4.732-9.519-0.012-13.399c-3.193-2.611-6.947-3.829-10.998-4.249c-0.326-0.103-0.652-0.207-0.977-0.31
		c0.109-0.041,0.219-0.082,0.328-0.123c-0.642-4.411-1.002-8.885-1.979-13.22c-3.155-14.005-10.207-25.731-21.436-34.754
		c-3.151-2.532-6.744-4.515-10.135-6.75c1.445-4.062,1.83-8.254,1.107-12.472C107.914,10.489,105.868,5.222,99.613,2.93z"/>
	<path fill="none" d="M1.453,64.13c0-20.4,0-40.8,0-61.2c31.68,0,63.36,0,95.04,0c-3.696,1.211-6.014,3.859-7.555,7.293
		c-1.721,3.832-2.28,7.863-1.979,12.032c-0.01,0.845-0.608,0.629-1.097,0.607c-5.974-0.274-11.886,0.12-17.685,1.681
		c-1.441,0.388-2.872,0.817-4.309,1.228c-0.084-0.477-0.146-0.825-0.207-1.173c-0.041-3.155-0.749-6.177-2.002-9.051
		c-1.923-4.41-4.822-8.004-9.217-10.155c-6.789-3.321-14.632-1.338-19.557,5.01c-5.068,6.532-6.219,13.951-4.364,21.861
		c1.23,5.246,3.868,9.671,8.431,12.769c-0.084,0.176-0.14,0.375-0.258,0.526c-4.053,5.23-7.176,10.968-9.438,17.183
		c-0.097,0.268-0.334,0.484-0.506,0.725c-3.641-2.879-7.733-4.74-12.322-5.501C8.105,56.917,4.065,58.827,1.453,64.13z"/>
	<path fill="#C0D8D2" d="M1.453,64.13c2.612-5.302,6.652-7.213,12.976-6.165c4.59,0.761,8.682,2.622,12.321,5.5
		c-0.053,0.418-0.042,0.857-0.167,1.252c-1.438,4.558-2.468,9.196-2.836,13.971c-0.128,1.653-0.285,3.304-0.429,4.956
		c-7.291-0.372-13.222-3.519-18.074-8.863c-1.847-2.035-2.943-4.478-3.791-7.052C1.453,66.53,1.453,65.33,1.453,64.13z"/>
	<path fill="#C0D8D2" d="M86.959,22.255c-0.301-4.169,0.258-8.2,1.979-12.032c1.542-3.434,3.859-6.082,7.555-7.293
		c1.04,0,2.08,0,3.12,0c6.254,2.293,8.301,7.559,9.308,13.436c0.723,4.218,0.338,8.41-1.107,12.472
		c-0.112-0.04-0.229-0.069-0.336-0.121c-6.186-3.009-12.658-5.021-19.532-5.679C87.596,23.005,87.287,22.526,86.959,22.255z"/>
	<path fill="#678AA7" d="M86.959,22.255c0.328,0.271,0.637,0.75,0.988,0.783c6.874,0.658,13.346,2.67,19.532,5.679
		c0.106,0.052,0.224,0.081,0.336,0.121c3.39,2.235,6.983,4.217,10.135,6.75c11.228,9.023,18.281,20.749,21.436,34.754
		c0.977,4.335,1.336,8.81,1.979,13.22c-0.109,0.041-0.219,0.082-0.328,0.123c0.326,0.103,0.652,0.207,0.979,0.311
		c-0.638,0.006-0.989,0.189-0.96,0.968c0.042,1.106-0.094,2.219-0.134,3.329c-0.221,6.042-1.427,11.896-3.338,17.617
		c-4.545,12.948-12.251,23.543-23.679,31.225c-13.013,8.746-27.3,11.608-42.724,8.688c-0.273-0.052-0.553-0.062-0.83-0.091
		c-1.835-0.519-3.685-0.99-5.502-1.565c-5.358-1.695-10.271-4.305-14.952-7.378c-2.414-2.019-4.937-3.923-7.222-6.079
		c-7.302-6.89-12.443-15.202-15.717-24.666c-2.445-7.068-3.621-14.354-3.48-21.843c0.003-0.184-0.104-0.371-0.159-0.556
		c0.145-1.652,0.302-3.303,0.43-4.956c0.369-4.775,1.399-9.413,2.836-13.971c0.125-0.396,0.114-0.834,0.167-1.252
		c0.173-0.24,0.41-0.457,0.508-0.724c2.262-6.215,5.385-11.953,9.438-17.183c0.117-0.151,0.173-0.35,0.257-0.527
		c1.112-1.248,2.196-2.523,3.343-3.739c6.22-6.599,13.494-11.656,22.004-14.856c0.962-0.362,1.466-0.809,1.361-1.838
		c0.062,0.348,0.123,0.696,0.207,1.173c1.437-0.411,2.868-0.84,4.309-1.228c5.799-1.56,11.711-1.954,17.685-1.681
		C86.35,22.884,86.949,23.1,86.959,22.255z M98.931,87.985c-2.814-4.755-5.553-9.384-8.314-14.05
		c-0.709,0.379-1.332,0.714-1.996,1.069c0.871,4.302,1.729,8.539,2.621,12.949c-3.102-3.297-6.073-6.455-9.06-9.629
		c-0.713,0.369-1.344,0.696-2.016,1.044c2.268,4.975,4.508,9.89,6.77,14.852c0.584-0.332,1.019-0.58,1.483-0.844
		c-1.761-3.785-3.468-7.453-5.175-11.12c0.366,0.028,0.583,0.167,0.753,0.35c2.473,2.666,4.962,5.318,7.394,8.022
		c0.67,0.745,1.205,0.791,1.929,0.001c-0.87-4.296-1.751-8.651-2.632-13.005c0.051-0.018,0.103-0.037,0.154-0.055
		c2.159,3.706,4.318,7.411,6.518,11.188C97.908,88.486,98.366,88.261,98.931,87.985z M112.952,62.446
		c2.519,4.79,5.016,9.536,7.528,14.312c0.57-0.307,0.984-0.531,1.484-0.801c-2.002-3.777-3.982-7.513-6.085-11.482
		c0.366,0.217,0.501,0.283,0.62,0.37c3.391,2.465,6.812,4.892,10.152,7.425c1.019,0.773,1.736,0.604,2.614-0.204
		c-2.507-4.769-5.002-9.514-7.525-14.314c-0.575,0.32-1.004,0.558-1.483,0.825c2.014,3.785,3.977,7.473,5.906,11.097
		c-3.436-2.445-6.923-4.846-10.308-7.383C114.777,61.482,113.984,61.508,112.952,62.446z M99.003,72.601
		c-0.004,4.144,2.596,8.553,5.705,10.073c3.39,1.658,7.213-0.3,7.641-4.039c0.459-4.013-1.259-7.247-4.133-9.877
		c-1.739-1.591-3.84-2.158-6.093-1.118C99.869,68.679,99.022,70.619,99.003,72.601z M68.809,103.591
		c-2.541-4.837-5.035-9.585-7.567-14.405c-0.591,0.31-1.063,0.559-1.58,0.83c1.065,2.048,2.069,3.978,3.118,5.994
		c-1.889,0.98-3.686,1.912-5.553,2.881c-1.069-2.012-2.11-3.971-3.18-5.985c-0.573,0.307-1.044,0.559-1.558,0.835
		c2.56,4.868,5.058,9.618,7.58,14.413c0.597-0.339,1.061-0.602,1.537-0.873c-1.196-2.297-2.328-4.469-3.487-6.696
		c1.928-0.996,3.721-1.922,5.562-2.873c1.192,2.257,2.342,4.434,3.535,6.692C67.759,104.127,68.235,103.884,68.809,103.591z
		 M48.589,114.015c-1.092-2.098-2.147-4.122-3.196-6.137c2.535-1.532,3.298-1.403,5.059,0.753c0.852,1.043,1.719,2.074,2.595,3.129
		c0.616-0.338,1.096-0.603,1.581-0.869c-0.941-1.142-1.827-2.221-2.716-3.298c-0.884-1.071-1.765-2.147-3.329-2.289
		c0.174-0.364,0.335-0.642,0.445-0.939c0.738-1.997,0.125-3.707-1.243-5.169c-1.272-1.36-2.874-1.53-4.509-0.777
		c-1.285,0.592-2.49,1.359-3.789,2.08c2.586,4.916,5.063,9.624,7.558,14.367C47.634,114.541,48.077,114.297,48.589,114.015z
		 M73.793,82.616c-2.145,1.114-4.221,2.193-6.371,3.31c2.549,4.852,5.048,9.607,7.573,14.413c2.252-1.169,4.43-2.299,6.636-3.445
		c-0.312-0.592-0.569-1.079-0.845-1.601c-1.725,0.874-3.375,1.711-5.081,2.576c-0.916-1.756-1.76-3.372-2.644-5.065
		c1.554-0.818,3.018-1.589,4.517-2.379c-0.319-0.589-0.581-1.073-0.85-1.569c-1.545,0.787-3.022,1.538-4.544,2.313
		c-0.812-1.56-1.553-2.985-2.308-4.435c1.665-0.877,3.207-1.689,4.77-2.512C74.356,83.672,74.113,83.216,73.793,82.616z"/>
	<path fill="#C0D8D2" d="M49.894,136.789c4.681,3.074,9.594,5.683,14.952,7.378c1.817,0.575,3.667,1.046,5.502,1.565
		c-2.63,5.271-6.289,9.534-11.978,11.586c-5.969,2.153-10.986-1.178-11.569-7.504C46.368,145.119,47.568,140.823,49.894,136.789z"/>
	<path fill="#C0D8D2" d="M137.582,105.909c1.911-5.721,3.117-11.575,3.338-17.617c0.041-1.11,0.176-2.223,0.134-3.329
		c-0.029-0.779,0.322-0.962,0.96-0.968c4.05,0.42,7.805,1.638,10.997,4.249c4.744,3.88,4.742,9.516,0.012,13.399
		c-3.302,2.711-7.214,3.845-11.377,4.227C140.302,105.994,138.938,105.903,137.582,105.909z"/>
	<path fill="#C0D8D2" d="M63.66,25.598c0.104,1.029-0.399,1.477-1.361,1.838c-8.509,3.2-15.784,8.256-22.004,14.856
		c-1.146,1.216-2.23,2.491-3.343,3.739c-4.563-3.098-7.201-7.523-8.431-12.769c-1.855-7.91-0.705-15.329,4.364-21.861
		C37.81,5.054,45.653,3.07,52.441,6.392c4.395,2.151,7.294,5.746,9.217,10.155C62.911,19.422,63.619,22.443,63.66,25.598z"/>
	<path fill="#C0D8D2" d="M98.931,87.985c-0.565,0.277-1.023,0.502-1.573,0.771c-2.2-3.776-4.359-7.482-6.518-11.188
		c-0.051,0.018-0.103,0.037-0.154,0.055c0.881,4.354,1.763,8.709,2.632,13.005c-0.724,0.79-1.259,0.744-1.929-0.001
		c-2.432-2.704-4.921-5.356-7.394-8.022c-0.17-0.183-0.387-0.322-0.753-0.35c1.707,3.667,3.413,7.335,5.175,11.12
		c-0.463,0.264-0.899,0.511-1.483,0.844c-2.262-4.962-4.502-9.877-6.77-14.852c0.672-0.348,1.303-0.675,2.016-1.044
		c2.987,3.174,5.958,6.332,9.06,9.629c-0.893-4.41-1.75-8.647-2.621-12.949c0.664-0.356,1.288-0.69,1.996-1.069
		C93.378,78.601,96.117,83.229,98.931,87.985z"/>
	<path fill="#C0D8D2" d="M112.952,62.446c1.032-0.939,1.825-0.964,2.902-0.157c3.384,2.538,6.871,4.938,10.308,7.383
		c-1.929-3.624-3.891-7.312-5.906-11.097c0.479-0.266,0.908-0.505,1.483-0.825c2.524,4.8,5.018,9.545,7.525,14.314
		c-0.878,0.808-1.595,0.977-2.614,0.204c-3.34-2.533-6.761-4.96-10.152-7.425c-0.119-0.087-0.254-0.152-0.62-0.37
		c2.104,3.969,4.084,7.705,6.085,11.482c-0.5,0.27-0.915,0.494-1.484,0.801C117.968,71.982,115.472,67.236,112.952,62.446z"/>
	<path fill="#C0D8D2" d="M99.003,72.601c0.019-1.981,0.866-3.922,3.119-4.961c2.253-1.04,4.354-0.473,6.093,1.118
		c2.874,2.63,4.592,5.864,4.133,9.877c-0.428,3.74-4.25,5.697-7.641,4.039C101.599,81.154,98.999,76.745,99.003,72.601z
		 M100.796,73.161c0.316,2.84,1.568,5.553,4.213,7.482c1.156,0.843,2.471,1.144,3.822,0.403c1.338-0.733,1.881-1.994,1.791-3.413
		c-0.204-3.226-1.571-5.908-4.204-7.842c-1.15-0.844-2.441-1.165-3.808-0.398C101.275,70.142,100.822,71.35,100.796,73.161z"/>
	<path fill="#C0D8D2" d="M68.809,103.591c-0.573,0.292-1.05,0.536-1.595,0.814c-1.193-2.258-2.343-4.435-3.535-6.692
		c-1.841,0.951-3.635,1.877-5.562,2.873c1.16,2.226,2.291,4.399,3.487,6.696c-0.476,0.27-0.94,0.534-1.537,0.873
		c-2.522-4.795-5.02-9.545-7.58-14.413c0.514-0.275,0.985-0.528,1.558-0.835c1.07,2.014,2.111,3.973,3.18,5.985
		c1.866-0.968,3.663-1.901,5.553-2.881c-1.048-2.015-2.053-3.946-3.118-5.994c0.517-0.272,0.99-0.52,1.58-0.83
		C63.773,94.006,66.267,98.754,68.809,103.591z"/>
	<path fill="#C0D8D2" d="M48.589,114.015c-0.512,0.282-0.954,0.526-1.544,0.851c-2.495-4.743-4.972-9.451-7.558-14.367
		c1.299-0.722,2.504-1.488,3.789-2.08c1.635-0.753,3.237-0.583,4.509,0.777c1.368,1.462,1.98,3.173,1.243,5.169
		c-0.11,0.297-0.271,0.575-0.445,0.939c1.564,0.142,2.445,1.218,3.329,2.289c0.889,1.077,1.776,2.156,2.716,3.298
		c-0.485,0.266-0.965,0.531-1.581,0.869c-0.876-1.055-1.743-2.086-2.595-3.129c-1.761-2.157-2.523-2.286-5.059-0.753
		C46.442,109.893,47.496,111.917,48.589,114.015z M44.555,106.299c1.578-0.693,3.052-1.297,3.16-3.189
		c0.065-1.145-0.922-2.715-1.946-3.083c-1.56-0.561-2.739,0.245-3.916,1.141C42.764,102.896,43.633,104.547,44.555,106.299z"/>
	<path fill="#C0D8D2" d="M73.793,82.616c0.32,0.6,0.563,1.056,0.855,1.604c-1.563,0.823-3.106,1.636-4.77,2.512
		c0.755,1.45,1.496,2.875,2.308,4.435c1.522-0.775,2.998-1.526,4.544-2.313c0.269,0.496,0.531,0.98,0.85,1.569
		c-1.5,0.79-2.963,1.561-4.517,2.379c0.884,1.693,1.728,3.31,2.644,5.065c1.706-0.865,3.356-1.701,5.081-2.576
		c0.276,0.523,0.532,1.009,0.845,1.601c-2.207,1.146-4.384,2.276-6.636,3.445c-2.525-4.806-5.024-9.561-7.573-14.413
		C69.572,84.808,71.648,83.73,73.793,82.616z"/>
	<path fill="#678AA7" d="M100.796,73.161c0.026-1.81,0.478-3.019,1.815-3.768c1.367-0.767,2.658-0.446,3.808,0.398
		c2.633,1.933,4,4.616,4.204,7.842c0.09,1.419-0.454,2.68-1.791,3.413c-1.352,0.741-2.666,0.441-3.822-0.403
		C102.365,78.714,101.112,76,100.796,73.161z"/>
	<path fill="#678AA7" d="M44.555,106.299c-0.922-1.752-1.791-3.403-2.701-5.132c1.177-0.895,2.356-1.702,3.916-1.141
		c1.023,0.368,2.011,1.938,1.946,3.083C47.607,105.002,46.133,105.606,44.555,106.299z"/>
</g>
</svg>
