<?xml version="1.0" encoding="utf-8"?>
<!-- Generator: Adobe Illustrator 17.0.0, SVG Export Plug-In . SVG Version: 6.00 Build 0)  -->
<!DOCTYPE svg PUBLIC "-//W3C//DTD SVG 1.1//EN" "http://www.w3.org/Graphics/SVG/1.1/DTD/svg11.dtd">
<svg version="1.1" id="Layer_1" xmlns="http://www.w3.org/2000/svg" xmlns:xlink="http://www.w3.org/1999/xlink" x="0px" y="0px"
	 width="1200px" height="450px" viewBox="0 0 1200 450" enable-background="new 0 0 1200 450" xml:space="preserve">
<g>
	<g>
		<path fill="#8BD0FF" d="M0.914,0.179c399.77,0,799.541,0,1199.311,0c-0.001,46.39-0.003,92.779-0.003,139.169
			c0,0.611,0.023,1.222,0.036,1.833c-0.282,0.248-0.526,0.579-0.853,0.731c-5.055,2.352-10.075,4.785-15.193,6.993
			c-11.439,4.938-22.815,10.048-34.423,14.557c-13.892,5.396-27.93,10.44-42.036,15.253c-9.905,3.38-20.001,6.216-30.064,9.112
			c-7.485,2.154-15.044,4.061-22.593,5.989c-3.476,0.887-6.993,1.632-10.516,2.315c-8.318,1.613-16.637,3.224-24.981,4.694
			c-5.708,1.005-11.45,1.821-17.191,2.625c-4.154,0.581-8.323,1.068-12.498,1.478c-4.252,0.418-8.516,0.715-12.778,1.019
			c-6.315,0.45-12.63,1.14-18.952,1.226c-13.448,0.182-26.909,0.504-40.334-0.776c-6.605-0.63-13.228-1.091-19.814-1.874
			c-6.663-0.792-13.334-1.659-19.925-2.9c-12.315-2.318-24.511-5.122-36.406-9.199c-11.079-3.797-22.124-7.651-32.6-12.918
			c-5.733-2.882-11.361-5.993-16.905-9.226c-4.418-2.576-8.8-5.261-12.607-8.742c-0.935-0.854-1.915-0.752-2.982-0.324
			c-2.482,0.995-4.953,2.025-7.469,2.927c-16.141,5.786-32.657,10.301-49.341,14.179c-7.727,1.796-15.552,3.204-23.376,4.539
			c-6.689,1.141-13.434,1.959-20.163,2.853c-3.174,0.421-6.367,0.708-9.556,1.012c-4.631,0.441-9.262,0.894-13.9,1.245
			c-3.425,0.259-6.862,0.368-10.294,0.535c-5.717,0.278-11.433,0.767-17.15,0.777c-10.778,0.019-21.557-0.209-32.335-0.398
			c-4.123-0.072-8.243-0.293-12.363-0.495c-2.362-0.116-4.722-0.305-7.078-0.51c-4.634-0.403-9.266-0.838-13.898-1.264
			c-3.799-0.349-7.605-0.635-11.393-1.075c-4.166-0.484-8.317-1.093-12.47-1.682c-5.74-0.813-11.497-1.534-17.208-2.52
			c-6.766-1.168-13.505-2.511-20.231-3.895c-7.63-1.569-15.27-3.113-22.839-4.944c-12.62-3.053-25.263-6.045-37.519-10.429
			c-4.03-1.441-8.14-2.657-12.181-4.067c-1.315-0.459-2.254-0.289-3.324,0.642c-2.243,1.953-4.451,4.048-6.997,5.529
			c-4.018,2.338-8.192,4.493-12.496,6.239c-10.772,4.371-22.217,6.097-33.616,7.837c-5.192,0.792-10.472,1.067-15.724,1.395
			c-4.725,0.295-9.464,0.442-14.198,0.468c-4.044,0.022-8.089-0.22-12.134-0.35c-4.657-0.15-9.316-0.251-13.969-0.477
			c-4.954-0.24-9.907-0.539-14.851-0.928c-5.245-0.413-10.487-0.897-15.717-1.47c-5.988-0.656-11.965-1.417-17.941-2.184
			c-7.263-0.932-14.539-1.785-21.772-2.913c-10.026-1.565-20.051-3.18-30.015-5.096c-10.492-2.019-20.918-4.39-31.356-6.68
			c-1.569-0.344-2.953-0.281-4.42,0.36c-6.806,2.975-13.81,5.391-21.003,7.252c-7.623,1.972-15.311,3.627-23.166,4.328
			c-5.848,0.522-11.703,1.132-17.566,1.285c-5.72,0.15-11.458-0.144-17.18-0.407c-4.189-0.192-8.406-0.395-12.54-1.046
			c-7.008-1.103-13.983-2.45-20.929-3.899c-10.661-2.225-20.863-5.962-30.996-9.865c-11.516-4.435-22.566-9.825-32.965-16.503
			c-0.006-1.071-0.016-2.141-0.016-3.212c-0.001-44.971,0-89.943-0.002-134.914C0.951,2.32,0.927,1.25,0.914,0.179z"/>
		<path fill="#DADFF0" d="M0.969,141.516c10.399,6.678,21.449,12.068,32.965,16.503c10.133,3.902,20.335,7.64,30.996,9.865
			c6.946,1.449,13.921,2.796,20.929,3.899c4.133,0.651,8.351,0.853,12.54,1.046c5.722,0.263,11.46,0.557,17.18,0.407
			c5.863-0.153,11.718-0.763,17.566-1.285c7.856-0.702,15.543-2.356,23.166-4.328c7.193-1.861,14.197-4.276,21.003-7.252
			c1.468-0.642,2.852-0.705,4.42-0.36c10.439,2.29,20.864,4.662,31.356,6.68c9.963,1.917,19.988,3.532,30.015,5.096
			c7.233,1.129,14.51,1.981,21.772,2.913c5.975,0.767,11.953,1.528,17.941,2.184c5.23,0.573,10.471,1.057,15.717,1.47
			c4.944,0.389,9.897,0.688,14.851,0.928c4.653,0.226,9.312,0.326,13.969,0.477c4.045,0.131,8.09,0.372,12.134,0.35
			c4.734-0.025,9.474-0.173,14.198-0.468c5.251-0.328,10.531-0.602,15.724-1.395c11.399-1.739,22.844-3.466,33.616-7.837
			c4.305-1.747,8.478-3.901,12.496-6.239c2.546-1.481,4.753-3.576,6.997-5.529c1.07-0.931,2.009-1.101,3.324-0.642
			c4.041,1.41,8.152,2.625,12.181,4.067c12.256,4.384,24.899,7.376,37.519,10.429c7.569,1.831,15.209,3.375,22.839,4.944
			c6.727,1.383,13.465,2.727,20.231,3.895c5.711,0.985,11.468,1.707,17.208,2.52c4.153,0.588,8.305,1.198,12.47,1.682
			c3.788,0.44,7.594,0.726,11.393,1.075c4.632,0.426,9.264,0.861,13.898,1.264c2.357,0.205,4.716,0.394,7.078,0.51
			c4.119,0.203,8.24,0.423,12.363,0.495c10.778,0.189,21.557,0.417,32.335,0.398c5.717-0.01,11.434-0.498,17.15-0.777
			c3.432-0.167,6.869-0.276,10.294-0.535c4.638-0.351,9.269-0.804,13.9-1.245c3.189-0.304,6.382-0.59,9.556-1.012
			c6.729-0.893,13.474-1.712,20.163-2.853c7.823-1.334,15.649-2.742,23.376-4.539c16.684-3.878,33.2-8.393,49.341-14.179
			c2.516-0.902,4.987-1.932,7.469-2.927c1.067-0.428,2.048-0.53,2.982,0.324c3.807,3.48,8.189,6.166,12.607,8.742
			c5.544,3.233,11.172,6.344,16.905,9.226c10.476,5.267,21.521,9.121,32.6,12.918c11.895,4.076,24.091,6.881,36.406,9.199
			c6.591,1.241,13.261,2.108,19.925,2.9c6.586,0.783,13.21,1.244,19.814,1.874c13.425,1.28,26.886,0.958,40.334,0.776
			c6.322-0.086,12.636-0.776,18.952-1.226c4.262-0.303,8.526-0.601,12.778-1.019c4.174-0.41,8.344-0.897,12.498-1.478
			c5.741-0.803,11.483-1.62,17.191-2.625c8.344-1.469,16.664-3.08,24.981-4.694c3.523-0.683,7.04-1.427,10.516-2.315
			c7.549-1.927,15.107-3.834,22.593-5.989c10.063-2.896,20.159-5.732,30.064-9.112c14.106-4.813,28.144-9.857,42.036-15.253
			c11.608-4.509,22.985-9.619,34.423-14.557c5.117-2.209,10.138-4.642,15.193-6.993c0.327-0.152,0.57-0.483,0.852-0.731
			c0.142-0.017,0.284-0.031,0.426-0.042c0,77.903,0,155.806,0,233.71c-0.131-0.418-0.378-0.837-0.376-1.254
			c0.012-3.581-0.924-6.98-2.133-10.282c-2.462-6.721-6.959-11.224-14.246-12.515c-4.561-0.808-8.995-0.247-13.315,1.27
			c-7.745,2.719-14.061,7.521-19.705,13.395c-8.318,8.658-14.479,18.702-19.5,29.518c-0.931,2.006-1.884,4.003-2.826,6.004
			c-1.788-2.655-3.443-5.412-5.386-7.948c-6.999-9.136-15.028-17.264-24.19-24.255c-3.305-2.522-6.983-4.408-10.851-5.802
			c-3.802-1.37-7.8-1.895-11.859-1.061c0.322-0.759,0.584-1.551,0.975-2.273c5.773-10.68,6.808-21.831,2.608-33.186
			c-3.228-8.729-9.337-14.563-18.88-16.163c-1.202-0.202-2.383-0.537-3.566-0.838c-9.348-2.38-18.814-4.005-28.46-4.491
			c-0.509-0.115-1.018-0.324-1.528-0.329c-3.273-0.03-6.548-0.031-9.821,0c-0.51,0.005-1.018,0.218-1.526,0.336
			c-4.673,0.047-9.246,0.882-13.753,1.992c-5.748,1.415-11.245,3.454-15.745,7.52c-2.675,2.417-4.503,5.373-5.351,8.878
			c-1.094,4.519-0.641,8.973,1.034,13.258c2.584,6.61,6.875,12.016,12.228,16.604c6.25,5.356,13.38,9.308,20.744,12.876
			c-0.004,0.267-0.008,0.533-0.012,0.8c-4.565-0.408-9.102-0.325-13.688,0.037c-5.057,0.399-10.003,1.231-14.882,2.474
			c-10.48,2.669-20.532,6.469-29.908,11.923c-7.634,4.44-13.162,10.592-15.491,19.3c-0.107,0.054-0.214,0.108-0.322,0.16
			c-0.008-0.836-0.101-1.681-0.011-2.505c0.374-3.406,1.015-6.796,1.168-10.21c0.322-7.177,0.099-14.348-1.323-21.426
			c-1.124-5.591-2.864-10.958-6.362-15.566c-2.084-2.745-4.407-5.236-7.735-6.603c-5.556-2.282-11.169-2.219-16.808-0.541
			c-7.7,2.292-13.789,7.18-19.299,12.736c-2.93,2.955-5.352,6.44-7.83,9.814c-4.966,6.761-8.356,14.377-11.63,22.043
			c-0.477,1.116-0.96,2.228-1.44,3.342c-0.383-0.749-0.67-1.569-1.166-2.234c-1.496-2.007-2.832-4.226-4.677-5.858
			c-2.529-2.236-5.589-3.69-9.089-3.976c-0.813-0.066-1.596-0.497-2.393-0.757c-1.086-0.354-2.153-0.803-3.264-1.041
			c-3.873-0.828-7.736-1.769-11.651-2.316c-4.515-0.631-9.076-0.975-13.627-1.285c-4.815-0.329-9.584,0.413-14.357,0.931
			c-1.129,0.122-2.26,0.217-3.391,0.324c1.081-0.555,2.169-1.098,3.242-1.668c4.563-2.419,8.203-5.885,11.039-10.146
			c4.659-6.998,7.416-14.736,8.231-23.096c0.796-8.169,0.145-16.146-3.94-23.531c-2.321-4.197-5.68-7.146-10.25-8.649
			c-0.852-0.28-1.795-0.284-2.648-0.561c-5.445-1.769-11.012-3.005-16.652-3.959c-9.715-1.643-19.446-1.874-29.191-0.347
			c-6.306,0.988-12.276,2.944-17.745,6.332c-8.891,5.508-12.325,14.589-10.959,24.417c0.885,6.37,3.638,11.959,7.48,17.027
			c3.119,4.114,6.925,7.535,11.087,10.578c1.572,1.15,3.061,2.414,4.587,3.626c-0.675-0.027-1.365,0.031-2.022-0.093
			c-9.378-1.775-18.738-1.127-27.988,0.669c-7.793,1.513-15.34,4.009-22.682,7.095c-5.788,2.433-11.481,5.009-16.495,8.87
			c-8.699,6.697-12.688,15.622-12.482,26.498c0.106,5.585,1.584,10.856,3.856,15.931c3.799,8.487,9.624,15.243,17.685,19.841
			c7.233,4.125,14.921,4.707,22.629,1.293c5.368-2.377,10.661-4.945,15.877-7.642c7.678-3.971,14.995-8.494,21.732-13.994
			c7.9-6.449,14.881-13.609,19.773-22.642c0.107,0.515,0.295,1.028,0.309,1.545c0.126,4.734,1.196,9.271,3.437,13.409
			c2.916,5.382,6.458,10.254,11.253,14.281c5.501,4.621,11.585,8.214,17.976,11.291c5.789,2.787,12.003,4.491,18.246,6.01
			c4.791,1.166,9.63,1.763,14.484,0.54c6.663-1.679,12.164-5.245,16.274-10.772c1.997-2.686,3.734-5.566,5.589-8.359
			c0.263,0.37,0.554,0.724,0.785,1.113c2.902,4.893,6.896,8.8,11.604,11.833c6.955,4.482,14.784,6.462,23.005,6.75
			c4.285,0.15,8.514-0.527,12.615-1.827c7.1-2.252,12.544-6.537,15.783-13.319c0.943-1.976,1.381-4.189,2.102-6.275
			c2.197-6.349,4.157-12.763,5.511-19.353c0.162-0.79,0.528-1.539,0.799-2.307c0.094,2.663-0.019,5.352,0.319,7.983
			c1.528,11.911,7.201,21.569,16.35,29.225c3.565,2.984,7.749,4.827,12.195,6.101c-0.975,0.102-1.951,0.294-2.926,0.295
			c-100.056,0.014-200.113,0.013-300.169,0.008c-1.146,0-2.291-0.074-3.435-0.113c0.061-0.094,0.107-0.195,0.142-0.301
			c1.9-0.55,3.888-0.9,5.684-1.688c5.646-2.48,8.473-7.265,9.971-12.956c1.582-6.01,0.905-11.971-0.667-17.887
			c-2.315-8.709-6.671-16.416-11.997-23.547c-7.124-9.54-15.467-17.936-25.1-24.973c-3.839-2.804-8.099-4.875-12.751-6.006
			c-3.148-0.765-6.358-0.792-9.574-0.57c0.143-0.426,0.211-0.898,0.441-1.27c4.442-7.175,6.347-14.998,5.954-23.393
			c-0.249-5.325-1.412-10.418-3.998-15.144c-3.404-6.219-8.367-10.481-15.345-12.09c-6.244-1.439-12.52-2.747-18.801-4.016
			c-6.597-1.333-13.311-1.718-20.008-1.98c-5.95-0.233-11.894,0.384-17.766,1.382c-4.909,0.835-9.687,2.22-14.118,4.56
			c-2.636,1.392-5.238,2.935-7.143,5.281c-5.008,6.165-5.514,13.107-2.897,20.316c2.849,7.848,8.213,13.865,14.727,18.9
			c4.12,3.185,8.514,5.953,13.198,8.256c0.704,0.346,1.248,1.018,1.867,1.539c-1.558-0.343-3.101-0.843-4.677-0.991
			c-2.583-0.242-5.106,0.08-7.676,0.719c-6.009,1.493-11.2,4.269-15.68,8.534c-4.646,4.423-7.725,9.807-9.899,15.741
			c-0.966,2.636-1.596,5.394-2.378,8.097c-0.162-0.661-0.443-1.317-0.467-1.983c-0.21-5.771-1.588-11.321-3.459-16.72
			c-1.731-4.994-4.405-9.441-7.994-13.465c-3.642-4.083-8.092-6.332-13.252-6.882c-8.809-0.939-16.736,1.536-23.525,7.388
			c-0.656,0.565-1.579,0.82-2.377,1.219c0.177-0.415,0.318-0.851,0.535-1.243c1.862-3.358,3.346-6.856,4.132-10.637
			c1.743-8.389,0.709-16.595-1.817-24.638c-3.942-12.553-11.025-23.29-19.775-32.957c-4.001-4.42-9.065-7.218-15.003-8.244
			c-5.784-0.999-11.429-0.338-16.909,1.681c-8.521,3.139-15.565,8.343-21.288,15.378c-2.423,2.978-4.595,6.113-6.183,9.617
			c-2.017,4.451-3.116,9.079-2.706,14.019c0.342,4.125,1.874,7.677,4.716,10.68c0.523,0.553,1,1.154,1.464,1.759
			c4.745,6.201,9.777,12.137,15.757,17.209c1.035,0.878,1.983,1.86,2.971,2.794c-1.952-0.301-3.895-0.704-5.858-0.883
			c-7.596-0.692-14.723,0.863-21.352,4.653c-7.034,4.021-13.264,8.905-17.884,15.726c-4.124,6.088-6.954,12.529-6.799,20.028
			c-0.753-2.472-1.349-5.005-2.289-7.404c-2.233-5.704-6.173-9.831-12.048-11.784c-3.54-1.176-7.202-1.984-10.807-2.963
			c-6.51-1.769-13.18-2.603-19.879-3.026c-6.181-0.391-12.363-0.057-18.469,1.174c-1.342,0.271-2.714,0.391-4.072,0.581
			c1.987-0.959,4.044-1.797,5.948-2.9c5.959-3.453,9.986-8.662,12.992-14.735c3.904-7.888,5.663-16.252,5.446-25.039
			c-0.152-6.142-1.555-11.916-4.814-17.21c-2.621-4.258-6.268-7.003-11.122-8.177c-1.781-0.43-3.557-0.888-5.316-1.398
			c-7.731-2.241-15.637-3.536-23.651-3.944c-4.253-0.217-8.539,0.152-12.806,0.328c-5.774,0.239-11.312,1.603-16.695,3.663
			c-4.343,1.663-8.352,3.972-11.468,7.389c-5.411,5.933-7.03,13.171-5.699,20.925c1.34,7.805,5.091,14.489,10.673,20.133
			c3.827,3.87,7.942,7.375,12.595,10.225c0.309,0.189,0.531,0.521,0.794,0.786c-10.484-2.376-20.941-1.926-31.399,0.222
			c-9.111,1.871-17.822,4.913-26.304,8.683c-4.844,2.153-9.475,4.665-13.58,8.03c-4.463,3.659-7.884,8.086-9.49,13.742
			c-0.259,0.02-0.519,0.039-0.778,0.059c0.074-0.519,0.148-1.038,0.222-1.558c0.021-0.284,0.042-0.568,0.063-0.852
			c0.128-1.248,0.256-2.496,0.384-3.744c0.021-0.434,0.043-0.868,0.064-1.302c0.484-4.766,0.577-9.532,0.009-14.298
			c-0.023-0.433-0.047-0.866-0.07-1.3c-0.292-2.194-0.49-4.406-0.893-6.58c-1.024-5.528-2.686-10.833-5.944-15.508
			c-3.485-5.002-8.034-8.222-14.283-8.905c-4.618-0.504-9.013,0.202-13.238,1.916c-5.952,2.415-11.015,6.205-15.643,10.611
			c-0.868,0.827-1.815,1.572-2.725,2.355c0.156-0.638,0.238-1.306,0.481-1.909c1.599-3.964,3.376-7.862,4.823-11.879
			c2.18-6.055,3.612-12.322,4.37-18.711c0.602-5.076,0.887-10.19,1.45-15.272c0.459-4.151,0.205-8.266-0.599-12.313
			c-1.833-9.227-6.559-16.523-14.812-21.343c-4.899-2.861-10.182-4.447-15.809-5.061c-9.477-1.035-18.442,0.498-26.747,5.262
			c-6.625,3.8-11.153,9.356-12.62,16.913c-0.781,4.021-0.915,8.196-1.038,12.31c-0.273,9.168-0.447,18.339,0.771,27.475
			c1.197,8.976,3.068,17.763,6.736,26.097c0.3,0.681,0.425,1.438,0.632,2.16c-0.652-0.468-1.359-0.877-1.948-1.415
			c-2.427-2.216-4.724-4.584-7.243-6.687c-4.063-3.392-8.461-6.335-13.44-8.216c-5.806-2.193-11.682-2.568-17.317,0.518
			c-3.523,1.929-6.377,4.69-8.732,7.977c-4.286,5.981-6.047,12.895-6.741,19.981c-0.67,6.841-0.254,13.751,0.987,20.566
			c2.265,12.44,6.542,24.194,12.252,35.425c3.05,5.998,7.114,11.223,12.982,14.83c3.105,1.909,6.501,3.023,9.986,3.94
			c-0.748,0.089-1.495,0.254-2.243,0.255c-12.735,0.014-25.47,0.008-38.205,0.006c0-16.836,0-33.671,0-50.507
			c0.036-0.051,0.108-0.106,0.102-0.151c-0.014-0.105-0.066-0.205-0.102-0.308c0-8.571,0-17.142,0-25.713
			c0.288-0.31,0.748-0.583,0.826-0.939c0.145-0.659,0.079-1.367,0.079-2.055c0.008-47.584,0.014-95.168,0.018-142.752
			c0-0.841-0.021-1.683-0.033-2.524c0.007-7.488,0.018-14.976,0.022-22.463c0.004-8.863,0.008-17.726-0.007-26.59
			c-0.002-1.032,0.293-2.196-0.904-2.868c0-4.745,0-9.489,0-14.234c0.042-0.048,0.125-0.103,0.118-0.143
			c-0.019-0.109-0.076-0.212-0.118-0.317c0-0.765,0-1.531,0-2.296c0-0.306,0-0.612,0-0.918c0-4.132,0-8.265,0-12.397
			C0.627,142.183,0.798,141.85,0.969,141.516z M828.096,311.957c0.242,3.91,0.405,7.187,0.659,10.457
			c0.295,3.8,0.474,7.624,1.052,11.384c1.22,7.946,3.073,15.752,6.39,23.124c2.62,5.821,5.742,11.319,10.89,15.358
			c3.005,2.358,6.351,4.037,10.191,4.358c6.282,0.525,11.888-1.438,17.055-4.923c5.117-3.451,8.83-8.181,12.163-13.242
			c4.809-7.3,7.707-15.424,9.91-23.812c2.413-9.19,3.401-18.602,3.934-28.052c0.368-6.532-0.375-12.918-3.037-19.047
			c-1.98-4.558-4.87-8.354-8.743-11.295c-5.295-4.021-11.189-6.97-17.932-7.545c-4.173-0.356-8.423-0.637-12.573-0.252
			c-7.134,0.662-13.602,3.468-19.306,7.789c-4.79,3.628-8.038,8.389-9.047,14.414c-0.389,2.319-0.365,4.707-0.54,7.062
			C828.796,302.678,828.422,307.62,828.096,311.957z"/>
		<path fill="#FFDD01" d="M1128.583,400.986c0.943-2.001,1.895-3.998,2.826-6.004c5.021-10.817,11.182-20.86,19.5-29.518
			c5.643-5.874,11.96-10.676,19.705-13.395c4.32-1.517,8.754-2.077,13.315-1.27c7.288,1.291,11.784,5.794,14.246,12.515
			c1.21,3.302,2.145,6.701,2.133,10.282c-0.001,0.418,0.245,0.836,0.376,1.254c0,3.061,0,6.122,0,9.183
			c-0.149,1.528-0.298,3.056-0.447,4.584c-0.049,0.916-0.038,1.841-0.157,2.748c-1.037,7.908-2.803,15.673-5.504,23.157
			c-2.566,7.109-5.518,14.086-8.506,21.032c-2.789,6.483-7.794,10.646-14.493,12.778c-1.52,0.484-3.073,0.865-4.61,1.294
			c-3.982,0-7.964,0-11.947,0c-0.427-0.138-0.845-0.319-1.281-0.409c-4.818-0.986-9.415-2.583-13.56-5.254
			c-2.096-1.351-4.008-2.985-6.003-4.492c-1.269-1.519-2.626-2.974-3.793-4.568c-5.388-7.356-6.63-15.588-4.729-24.331
			C1126.361,407.318,1127.591,404.178,1128.583,400.986z"/>
		<path fill="#F6FBFD" d="M1155.022,449.625c3.982,0,7.964,0,11.947,0c0.764,0.024,1.528,0.069,2.292,0.069
			c10.475,0.003,20.949-0.001,31.424-0.003c-0.189,0.288,0.447,0.974-0.459,0.924c-0.534-0.03-1.071-0.005-1.607-0.005
			c-399.388,0-798.776,0-1198.163,0c0-0.306,0-0.612,0-0.918c12.735,0.002,25.47,0.008,38.205-0.006
			c0.748-0.001,1.496-0.166,2.243-0.255c4.097,0.077,8.195,0.154,12.293,0.232c22.369,0.009,44.739,0.017,67.108,0.026
			c4.713,0.336,9.426,0.752,14.137-0.03c0.458,0.017,0.917,0.048,1.375,0.048c51.315-0.001,102.631-0.004,153.946-0.008
			c9.483-0.001,18.966-0.009,28.449-0.014c1.87,0.154,3.74,0.441,5.608,0.427c2.397-0.018,4.793-0.279,7.189-0.435
			c0.382,0.008,0.764,0.023,1.147,0.023c47.549,0,95.098,0,142.647-0.002c0.611,0,1.222-0.024,1.834-0.036
			c3.189-0.001,6.378-0.001,9.567-0.002c13.905,0.013,27.81,0.033,41.715,0.037c5.271,0.001,10.543-0.034,15.814-0.052
			c2.38-0.002,4.761-0.003,7.141-0.005c0.687,0.019,1.374,0.055,2.061,0.055c32.549,0.003,65.099,0.004,97.648,0
			c0.839,0,1.679-0.059,2.518-0.09c0.239-0.073,0.478-0.146,0.718-0.218c2.612,0.001,5.223,0.003,7.835,0.004
			c0.228,0.063,0.455,0.127,0.683,0.19c1.146,0.039,2.291,0.113,3.437,0.113c100.056,0.005,200.113,0.006,300.169-0.008
			c0.975,0,1.951-0.192,2.926-0.295c3.306,0.614,6.632,0.509,9.962,0.269c0.382,0.017,0.763,0.048,1.145,0.048
			c42.654-0.002,85.308-0.005,127.962-0.014c0.992,0,1.984-0.074,2.976-0.113c0.213-0.069,0.426-0.138,0.638-0.207
			c2.623,0.006,5.246,0.013,7.867,0.019c0.083,0.113,0.193,0.191,0.327,0.235C1131.503,449.625,1143.262,449.625,1155.022,449.625z"
			/>
		<path fill="#DBE0EE" d="M1200.685,449.691c-10.475,0.002-20.949,0.005-31.424,0.003c-0.764,0-1.528-0.045-2.292-0.069
			c1.537-0.429,3.09-0.81,4.609-1.294c6.699-2.133,11.704-6.295,14.493-12.778c2.988-6.946,5.94-13.923,8.506-21.032
			c2.702-7.484,4.467-15.249,5.504-23.157c0.119-0.907,0.108-1.831,0.157-2.748c0.149,0.003,0.298,0.005,0.447,0.007
			C1200.685,408.98,1200.685,429.335,1200.685,449.691z"/>
		<path fill="#F6FBFD" d="M1.345,224.742c0.011,0.841,0.033,1.683,0.033,2.524c-0.004,47.584-0.01,95.168-0.018,142.752
			c0,0.688,0.066,1.396-0.079,2.055c-0.078,0.356-0.538,0.629-0.826,0.939c0-49.436,0-98.871,0-148.307
			C0.752,224.718,1.049,224.73,1.345,224.742z"/>
		<path fill="#DAEFFF" d="M0.969,141.516c-0.171,0.334-0.343,0.667-0.514,1.001c0-46.835-0.002-93.67,0.024-140.505
			c0-0.601-0.464-1.409,0.435-1.833C0.927,1.25,0.951,2.32,0.951,3.391c0.002,44.971,0.001,89.943,0.002,134.914
			C0.953,139.375,0.963,140.446,0.969,141.516z"/>
		<path fill="#A8DCFF" d="M1200.685,141.14c-0.142,0.011-0.285,0.024-0.426,0.042c-0.012-0.611-0.036-1.222-0.036-1.833
			c0-46.39,0.001-92.779,0.003-139.169c0.153,0.077,0.433,0.145,0.439,0.231c0.038,0.61,0.02,1.223,0.02,1.835
			C1200.685,48.543,1200.685,94.841,1200.685,141.14z"/>
		<path fill="#DAEFFF" d="M1.345,224.742c-0.297-0.012-0.593-0.024-0.89-0.037c0-17.295,0-34.59,0-51.884
			c1.197,0.672,0.903,1.836,0.904,2.868c0.015,8.863,0.011,17.726,0.007,26.59C1.364,209.767,1.353,217.255,1.345,224.742z"/>
		<path fill="#FFD272" d="M1200.685,388.624c-0.149-0.002-0.298-0.005-0.447-0.007c0.149-1.528,0.298-3.056,0.447-4.584
			C1200.685,385.563,1200.685,387.093,1200.685,388.624z"/>
		<path fill="#DAEFFF" d="M0.455,154.914c0,0.306,0,0.612,0,0.918C0.455,155.526,0.455,155.22,0.455,154.914z"/>
		<path fill="#DAEFFF" d="M0.455,158.128c0.042,0.105,0.099,0.208,0.118,0.317c0.007,0.039-0.076,0.095-0.118,0.143
			C0.455,158.434,0.455,158.281,0.455,158.128z"/>
		<path fill="#F6FBFD" d="M0.455,398.725c0.036,0.102,0.088,0.202,0.102,0.308c0.006,0.045-0.066,0.101-0.102,0.151
			C0.455,399.031,0.455,398.878,0.455,398.725z"/>
		<path fill="#FFB9BF" d="M940.004,406.08c-0.271,0.768-0.636,1.517-0.799,2.307c-1.353,6.59-3.314,13.004-5.511,19.353
			c-0.722,2.086-1.159,4.299-2.102,6.275c-3.238,6.782-8.683,11.068-15.783,13.319c-4.101,1.301-8.33,1.978-12.615,1.827
			c-8.221-0.288-16.049-2.269-23.005-6.75c-4.708-3.033-8.702-6.94-11.604-11.833c-0.231-0.389-0.522-0.743-0.785-1.113
			c-0.206-0.573-0.385-1.157-0.623-1.716c-1.358-3.19-2.261-6.518-2.533-9.957c-0.426-5.391,0.353-10.667,1.984-15.825
			c1.059-3.349,2.04-6.724,3.056-10.087c0.48-1.114,0.963-2.227,1.44-3.343c3.275-7.666,6.664-15.282,11.63-22.043
			c2.478-3.373,4.899-6.859,7.83-9.814c5.51-5.556,11.598-10.445,19.299-12.736c5.639-1.678,11.252-1.742,16.808,0.541
			c3.328,1.367,5.651,3.858,7.735,6.603c3.498,4.608,5.238,9.975,6.362,15.566c1.423,7.078,1.645,14.249,1.323,21.426
			c-0.153,3.414-0.794,6.804-1.168,10.21c-0.09,0.825,0.003,1.67,0.011,2.504c-0.245,1.74-0.49,3.48-0.735,5.221
			C940.217,406.017,940.004,406.08,940.004,406.08z"/>
		<path fill="#FFE45C" d="M60.118,362.513c-0.207-0.722-0.332-1.479-0.632-2.16c-3.668-8.334-5.539-17.121-6.736-26.097
			c-1.218-9.136-1.044-18.307-0.771-27.475c0.122-4.114,0.257-8.289,1.038-12.31c1.468-7.557,5.996-13.112,12.62-16.913
			c8.305-4.764,17.271-6.297,26.747-5.262c5.626,0.614,10.91,2.2,15.809,5.061c8.253,4.82,12.979,12.116,14.812,21.343
			c0.804,4.047,1.058,8.162,0.599,12.313c-0.562,5.082-0.847,10.195-1.45,15.272c-0.758,6.389-2.19,12.657-4.37,18.711
			c-1.447,4.018-3.224,7.916-4.823,11.879c-0.243,0.603-0.325,1.271-0.481,1.909c0,0,0.021-0.012,0.021-0.012
			c-0.756-0.079-0.869,0.416-0.889,0.995c0,0,0.011-0.06,0.011-0.06c-0.203,0.336-0.406,0.672-0.609,1.008
			c-0.714,1.058-1.379,2.155-2.153,3.167c-1.505,1.968-3.071,3.889-4.611,5.829c-0.171,0.336-0.342,0.672-0.513,1.007
			c0,0,0.019-0.031,0.019-0.031c-0.837,0.626-1.706,1.214-2.506,1.884c-6.016,5.039-12.536,8.702-20.784,7.847
			c-2.159-0.224-4.187-0.75-6.058-1.883c-1.357-0.822-2.761-1.567-4.144-2.346l0.015,0.028c-0.155-0.203-0.311-0.406-0.466-0.609
			c-2.091-2.473-4.248-4.896-6.248-7.44c-1.114-1.416-1.968-3.037-2.939-4.565c-0.171-0.38-0.342-0.761-0.513-1.141L60.118,362.513z
			"/>
		<path fill="#01FFE6" d="M104.252,369.712c1.541-1.94,3.106-3.861,4.611-5.829c0.774-1.013,1.439-2.109,2.154-3.168
			c0.203-0.336,0.406-0.672,0.608-1.007c0,0-0.011,0.06-0.011,0.06c0.296-0.332,0.593-0.663,0.889-0.995
			c0,0-0.021,0.012-0.021,0.012c0.91-0.783,1.856-1.528,2.725-2.355c4.628-4.406,9.691-8.196,15.643-10.611
			c4.225-1.714,8.62-2.42,13.238-1.916c6.248,0.682,10.798,3.903,14.283,8.905c3.257,4.675,4.92,9.98,5.944,15.508
			c0.403,2.174,0.601,4.385,0.893,6.579c0.023,0.433,0.047,0.867,0.07,1.3c0.569,4.766,0.475,9.532-0.009,14.297
			c-0.021,0.434-0.043,0.868-0.064,1.303c-0.128,1.248-0.256,2.496-0.384,3.743c-0.021,0.284-0.042,0.568-0.063,0.853
			c-0.074,0.519-0.148,1.038-0.222,1.557c-0.173,0.719-0.346,1.438-0.52,2.158c-0.015,0.309-0.029,0.617-0.044,0.925
			c-0.022,0.146-0.026,0.291-0.01,0.438c-0.29,1.731-0.58,3.462-0.871,5.193c-0.413,2.013-0.704,4.06-1.263,6.032
			c-1.849,6.524-3.672,13.059-5.739,19.515c-1.855,5.794-5.371,10.459-10.796,13.371c-2.529,1.357-5.322,2.231-8.015,3.27
			c-0.913,0.353-1.888,0.543-2.835,0.808c-4.711,0.782-9.424,0.366-14.137,0.03c-0.585-0.153-1.165-0.331-1.756-0.455
			c-7.429-1.564-14.185-4.419-19.899-9.625c-6.273-5.715-9.898-12.647-10.595-21.106c0.013-2.005,0.027-4.011,0.04-6.016
			c0.256-1.66,0.388-3.35,0.787-4.974c3.003-12.239,7.481-23.898,13.849-34.802c0.38-0.651,0.687-1.346,1.028-2.02
			c0,0-0.019,0.031-0.019,0.031C103.91,370.383,104.081,370.047,104.252,369.712z"/>
		<path fill="#BBA2FF" d="M828.096,311.957c0.326-4.338,0.7-9.28,1.067-14.222c0.175-2.356,0.151-4.743,0.54-7.062
			c1.009-6.025,4.257-10.787,9.047-14.414c5.704-4.32,12.172-7.127,19.306-7.789c4.15-0.385,8.4-0.104,12.573,0.252
			c6.743,0.575,12.637,3.524,17.932,7.545c3.873,2.941,6.763,6.737,8.743,11.295c2.662,6.129,3.406,12.515,3.037,19.047
			c-0.533,9.45-1.521,18.862-3.934,28.052c-2.203,8.388-5.101,16.512-9.91,23.812c-3.334,5.06-7.046,9.791-12.163,13.242
			c-5.167,3.485-10.773,5.447-17.055,4.923c-3.84-0.321-7.186-2-10.191-4.358c-5.147-4.039-8.27-9.537-10.89-15.358
			c-3.317-7.371-5.17-15.177-6.39-23.124c-0.577-3.76-0.756-7.584-1.052-11.384C828.501,319.144,828.338,315.867,828.096,311.957z"
			/>
		<path fill="#01FFE6" d="M978.828,449.659c-3.33,0.24-6.656,0.345-9.962-0.269c-4.445-1.273-8.629-3.117-12.194-6.101
			c-9.149-7.657-14.822-17.315-16.35-29.225c-0.337-2.631-0.224-5.32-0.319-7.983c0-0.001,0.214-0.064,0.213-0.063
			c0.352-1.793,0.704-3.587,1.056-5.38c2.329-8.709,7.857-14.86,15.491-19.3c9.376-5.454,19.427-9.254,29.908-11.923
			c4.879-1.243,9.824-2.075,14.882-2.474c4.587-0.362,9.124-0.445,13.688-0.037c0.72,0.044,1.441,0.088,2.161,0.132
			c3.956,1.346,7.913,2.686,11.866,4.041c1.357,0.465,2.701,0.967,4.051,1.452c0.809,0.578,1.639,1.129,2.423,1.739
			c8.003,6.225,11.004,15.059,7.544,24.878c-1.853,5.259-4.789,9.9-8.281,14.192c-4.267,5.245-9.302,9.721-14.55,13.937
			c-7.066,5.676-14.917,10.168-22.941,14.29C991.481,444.663,985.329,447.591,978.828,449.659z"/>
		<path fill="#2FEAFF" d="M60.627,363.603c0.971,1.528,1.825,3.149,2.939,4.565c2.001,2.545,4.157,4.967,6.249,7.441
			c0.156,0.203,0.31,0.406,0.465,0.608c0,0-0.015-0.028-0.015-0.028c0.188,0.41,0.348,0.836,0.568,1.227
			c2.812,4.987,5.772,9.897,8.409,14.974c2.321,4.468,4.393,9.075,6.354,13.714c0.85,2.01,1.145,4.254,1.692,6.391
			c-0.004,1.988-0.007,3.976-0.011,5.964c-0.517,3.258-1.462,6.384-2.993,9.311c-3.487,6.664-8.768,11.659-14.991,15.675
			c-3.989,2.574-8.362,4.376-13.025,5.41c-1.033,0.229-2.048,0.535-3.071,0.806c-4.098-0.077-8.195-0.155-12.293-0.232
			c-3.484-0.917-6.881-2.031-9.986-3.94c-5.867-3.607-9.931-8.832-12.982-14.83c-5.71-11.23-9.987-22.985-12.252-35.425
			c-1.241-6.816-1.657-13.725-0.987-20.566c0.694-7.086,2.455-14,6.741-19.981c2.355-3.287,5.209-6.048,8.732-7.977
			c5.635-3.086,11.511-2.711,17.317-0.518c4.979,1.881,9.376,4.824,13.44,8.216c2.519,2.103,4.816,4.471,7.243,6.687
			c0.589,0.538,1.295,0.947,1.948,1.415c0,0-0.005-0.051-0.005-0.051C60.284,362.843,60.455,363.223,60.627,363.603z"/>
		<path fill="#FFEA01" d="M780.233,401.519c-4.892,9.033-11.872,16.193-19.773,22.642c-6.737,5.5-14.054,10.023-21.732,13.994
			c-5.216,2.697-10.508,5.265-15.877,7.642c-7.709,3.413-15.396,2.832-22.629-1.293c-8.06-4.597-13.886-11.354-17.685-19.841
			c-2.272-5.075-3.75-10.347-3.856-15.931c-0.206-10.876,3.782-19.801,12.482-26.498c5.014-3.86,10.707-6.437,16.495-8.87
			c7.341-3.086,14.888-5.582,22.682-7.095c9.251-1.796,18.61-2.444,27.988-0.669c0.656,0.124,1.347,0.066,2.022,0.093
			c0,0-0.019-0.051-0.019-0.051c0.366,0.161,0.731,0.321,1.097,0.482c4.533,2.168,9.066,4.337,13.599,6.505
			c0.146,0.173,0.272,0.37,0.441,0.516c5.141,4.434,7.987,9.952,7.968,16.828c-0.801,2.284-1.693,4.54-2.369,6.86
			C780.625,398.348,780.5,399.954,780.233,401.519z"/>
		<path fill="#2FDEFF" d="M163.089,406.662c0.29-1.731,0.58-3.462,0.87-5.193c0.039-0.044,0.117-0.094,0.112-0.131
			c-0.016-0.105-0.065-0.205-0.102-0.307c0.015-0.309,0.029-0.617,0.043-0.925c1.095-0.35,0.936-1.435,1.298-2.216
			c1.606-5.656,5.027-10.083,9.49-13.742c4.106-3.366,8.736-5.877,13.58-8.03c8.482-3.771,17.194-6.812,26.304-8.683
			c10.458-2.148,20.915-2.598,31.399-0.222c0.696,0.29,1.4,0.564,2.086,0.876c3.614,1.645,7.224,3.3,10.836,4.952
			c0.15,0.128,0.3,0.255,0.45,0.383l-0.001-0.009c5.322,4.602,8.672,10.195,8.755,17.428c-0.748,2-1.628,3.963-2.204,6.012
			c-0.513,1.823-0.688,3.741-1.012,5.617c-2.191,3.308-4.184,6.769-6.615,9.89c-4.629,5.945-10.343,10.839-16.336,15.332
			c-9.081,6.808-19.007,12.21-29.382,16.794c-1.257,0.556-2.511,1.123-3.738,1.742c-6.181,3.118-12.572,3.548-19.124,1.429
			c-5.667-1.833-10.302-5.223-14.298-9.596c-7.445-8.148-11.691-17.61-12.064-28.72
			C163.408,408.446,163.209,407.556,163.089,406.662z"/>
		<path fill="#FFA2F7" d="M554.155,363.994c-0.618-0.521-1.162-1.193-1.867-1.54c-4.684-2.304-9.078-5.071-13.198-8.256
			c-6.513-5.035-11.878-11.052-14.727-18.9c-2.617-7.209-2.111-14.151,2.897-20.316c1.905-2.345,4.506-3.888,7.143-5.281
			c4.43-2.339,9.208-3.725,14.118-4.56c5.871-0.998,11.816-1.615,17.766-1.382c6.697,0.262,13.412,0.646,20.008,1.98
			c6.281,1.27,12.557,2.577,18.801,4.016c6.978,1.608,11.942,5.87,15.345,12.09c2.586,4.725,3.749,9.818,3.998,15.144
			c0.393,8.395-1.513,16.218-5.954,23.393c-0.23,0.372-0.298,0.845-0.441,1.27c0,0,0.008,0.119,0.008,0.119
			c-0.139,0.037-0.278,0.074-0.417,0.111c-0.883,1.026-1.729,2.086-2.654,3.071c-4.997,5.326-11.192,8.239-18.41,9.067
			c-0.201,0.135-0.401,0.271-0.602,0.406l0.05-0.022c-3.11-0.204-6.277-0.107-9.32-0.672c-7.788-1.445-15.496-3.274-22.913-6.15
			c-0.703-0.273-1.466-0.392-2.201-0.582C559.108,365.998,556.631,364.996,554.155,363.994z"/>
		<path fill="#45FF7B" d="M1033.319,372.528c-1.35-0.485-2.694-0.987-4.05-1.452c-3.953-1.355-7.91-2.695-11.865-4.041
			c-0.716-0.311-1.433-0.621-2.149-0.932c-7.364-3.568-14.493-7.52-20.744-12.876c-5.354-4.587-9.644-9.994-12.228-16.604
			c-1.675-4.285-2.128-8.739-1.034-13.258c0.849-3.505,2.676-6.461,5.351-8.878c4.5-4.066,9.998-6.105,15.745-7.52
			c4.508-1.11,9.08-1.945,13.753-1.992c4.292-0.002,8.584-0.004,12.876-0.007c9.646,0.486,19.112,2.111,28.46,4.491
			c1.183,0.301,2.364,0.636,3.566,0.838c9.543,1.6,15.652,7.433,18.88,16.163c4.2,11.355,3.165,22.506-2.608,33.186
			c-0.391,0.722-0.653,1.514-0.975,2.273c-0.829,0.956-1.662,1.907-2.485,2.868c-5.31,6.199-12.066,9.547-20.169,10.241
			c-2.404-0.03-4.809-0.059-7.213-0.089c-2.374-0.428-4.749-0.849-7.122-1.285C1037.31,373.289,1035.315,372.905,1033.319,372.528z"
			/>
		<path fill="#FF6301" d="M596.571,374.02c7.217-0.828,13.413-3.741,18.41-9.067c0.925-0.986,1.771-2.046,2.653-3.071
			c0.139-0.037,0.278-0.074,0.418-0.112c0,0-0.008-0.119-0.008-0.119c3.216-0.222,6.426-0.196,9.574,0.57
			c4.652,1.131,8.912,3.202,12.751,6.006c9.633,7.037,17.976,15.434,25.1,24.973c5.326,7.132,9.681,14.839,11.997,23.547
			c1.573,5.916,2.249,11.877,0.667,17.887c-1.498,5.691-4.325,10.476-9.971,12.956c-1.795,0.788-3.784,1.138-5.682,1.688
			c-0.275,0.037-0.551,0.073-0.827,0.11c-2.612-0.001-5.223-0.003-7.833-0.003c-0.277-0.032-0.556-0.064-0.834-0.096
			c-3.075-0.363-6.099-0.911-9.057-1.894c-5.939-1.973-11.674-4.32-17.173-7.38c-10.4-5.787-19.85-12.793-28.655-20.77
			c-2.718-2.463-5.503-4.799-7.623-7.82c-1.604-3.486-2.879-7.072-3.281-10.919c0.033-2.292-0.309-4.667,0.177-6.858
			c1.023-4.607,2.412-9.143,4.937-13.22c1.242-2.005,2.473-4.016,3.709-6.025c0,0-0.05,0.022-0.049,0.022
			C596.17,374.291,596.371,374.155,596.571,374.02z"/>
		<path fill="#8BFFED" d="M264.995,402.472c0.324-1.876,0.5-3.794,1.012-5.617c0.576-2.049,1.456-4.012,2.204-6.012
			c0.265-0.265,0.59-0.493,0.787-0.802c2.363-3.699,5.756-6.243,9.559-8.212c3.021-1.564,6.204-2.815,9.315-4.205
			c0.445-0.153,0.89-0.305,1.335-0.458c1.358-0.19,2.73-0.31,4.072-0.581c6.105-1.231,12.288-1.565,18.469-1.174
			c6.699,0.423,13.368,1.257,19.879,3.026c3.605,0.98,7.267,1.787,10.807,2.963c5.876,1.953,9.815,6.081,12.048,11.784
			c0.939,2.399,1.536,4.932,2.289,7.404c0.007,0.126,0.014,0.252,0.023,0.378c0.138,0.789,0.276,1.579,0.414,2.368
			c0,0-0.009-0.023-0.009-0.023c0.027,4.728,0.049,9.441-0.877,14.125c-1.362,6.896-3.698,13.36-7.695,19.191
			c-3.298,4.811-7.32,8.768-12.745,11.118c-1.603,0.694-3.249,1.288-4.875,1.928c-2.396,0.156-4.792,0.417-7.189,0.435
			c-1.868,0.014-3.739-0.274-5.608-0.427c-1.455-0.407-2.905-0.835-4.367-1.217c-7.849-2.05-15.41-4.764-22.461-8.89
			c-7.369-4.312-14.178-9.189-19.133-16.312c-4.042-5.81-6.924-12.007-6.926-19.262C265.324,403.492,265.11,402.982,264.995,402.472
			z"/>
		<path fill="#5C62FF" d="M408.664,361.068c-0.988-0.934-1.936-1.916-2.971-2.794c-5.98-5.072-11.012-11.008-15.757-17.209
			c-0.463-0.605-0.94-1.206-1.464-1.759c-2.842-3.003-4.374-6.555-4.716-10.68c-0.41-4.94,0.689-9.568,2.706-14.019
			c1.588-3.504,3.76-6.639,6.183-9.617c5.723-7.035,12.767-12.239,21.288-15.378c5.48-2.019,11.124-2.68,16.909-1.681
			c5.938,1.025,11.002,3.823,15.003,8.244c8.751,9.667,15.834,20.404,19.775,32.957c2.525,8.042,3.559,16.248,1.817,24.638
			c-0.785,3.781-2.269,7.279-4.132,10.637c-0.218,0.393-0.359,0.828-0.535,1.243c0,0,0.047-0.008,0.047-0.008
			c-0.158,0.162-0.317,0.325-0.475,0.487c0,0,0.025-0.025,0.025-0.025c-0.154,0.164-0.309,0.328-0.463,0.492l0.011-0.015
			c-0.239,0.308-0.479,0.617-0.718,0.925c-0.984,0.966-1.967,1.932-2.951,2.899c-3.413,2.623-7.146,4.507-11.489,4.986
			c-2.602-0.003-5.204-0.007-7.806-0.01c-5.4-0.656-10.443-2.457-15.319-4.789c-1.497-0.716-2.981-1.462-4.47-2.194
			c-3.276-2.292-6.551-4.584-9.827-6.876c-0.231-0.155-0.461-0.309-0.692-0.464L408.664,361.068z"/>
		<path fill="#FF2E2E" d="M775.026,372.629c-4.533-2.168-9.066-4.337-13.599-6.505c-0.366-0.161-0.731-0.321-1.096-0.482
			c0,0,0.019,0.051,0.019,0.051c-1.527-1.212-3.015-2.476-4.588-3.626c-4.162-3.043-7.968-6.464-11.087-10.578
			c-3.842-5.068-6.594-10.658-7.48-17.027c-1.366-9.828,2.068-18.909,10.959-24.417c5.469-3.388,11.439-5.344,17.745-6.332
			c9.745-1.527,19.476-1.296,29.191,0.347c5.639,0.954,11.206,2.189,16.652,3.959c0.853,0.277,1.796,0.281,2.648,0.561
			c4.57,1.503,7.929,4.452,10.25,8.649c4.084,7.385,4.736,15.361,3.94,23.531c-0.815,8.36-3.572,16.098-8.231,23.096
			c-2.836,4.261-6.476,7.726-11.039,10.146c-1.074,0.569-2.161,1.112-3.242,1.668c-0.108-0.05-0.187-0.02-0.235,0.089
			c-0.391,0.133-0.782,0.265-1.174,0.398c-0.686,0.183-1.372,0.367-2.058,0.55c-0.677,0.078-1.358,0.131-2.03,0.237
			c-3.884,0.612-7.791,0.383-11.562-0.446c-4.281-0.941-8.436-2.453-12.651-3.697C775.934,372.674,775.471,372.683,775.026,372.629z
			"/>
		<path fill="#FFD0A2" d="M409.335,361.521c3.276,2.292,6.551,4.584,9.828,6.876c0.91,1.123,1.815,2.25,2.73,3.369
			c5.672,6.938,10.471,14.412,13.984,22.683c2.516,5.921,4.347,12.024,4.992,18.45c0.005,3.106,0.009,6.212,0.014,9.318
			c-0.535,6.64-2.658,12.681-6.897,17.878c-2.85,3.493-6.27,6.198-10.673,7.576c-4.734,1.482-9.479,1.413-14.245,0.378
			c-6.716-1.457-12.867-4.188-18.553-8.088c-4.987-3.421-9.84-6.985-14.119-11.266c-2.318-2.319-4.599-4.695-6.69-7.216
			c-3.213-3.874-6.365-7.81-9.305-11.891c-1.356-1.883-2.151-4.171-3.2-6.275c0,0,0.009,0.023,0.009,0.023
			c-0.138-0.789-0.276-1.579-0.414-2.368c-0.009-0.126-0.017-0.252-0.023-0.378c-0.155-7.499,2.675-13.939,6.799-20.027
			c4.62-6.82,10.85-11.705,17.884-15.726c6.629-3.789,13.756-5.345,21.352-4.653c1.963,0.179,3.906,0.583,5.858,0.883
			c0,0-0.021-0.01-0.021-0.01C408.874,361.212,409.104,361.367,409.335,361.521z"/>
		<path fill="#B8FFA2" d="M289.208,377.167c-0.445,0.153-0.89,0.305-1.335,0.458c-0.76,0.039-1.532,0.008-2.279,0.128
			c-3.268,0.526-6.556,0.655-9.774-0.102c-4.449-1.047-8.844-2.32-13.265-3.486c-1.027-0.271-2.065-0.501-3.098-0.75
			c0,0,0.001,0.009,0.001,0.009c-0.15-0.128-0.3-0.255-0.45-0.383c-3.612-1.652-7.221-3.307-10.836-4.952
			c-0.686-0.312-1.39-0.586-2.086-0.876c-0.262-0.264-0.484-0.596-0.793-0.785c-4.653-2.85-8.768-6.356-12.595-10.225
			c-5.582-5.644-9.333-12.328-10.673-20.133c-1.331-7.754,0.288-14.992,5.699-20.925c3.116-3.417,7.125-5.727,11.468-7.389
			c5.382-2.061,10.92-3.424,16.695-3.663c4.268-0.177,8.554-0.545,12.806-0.328c8.015,0.409,15.921,1.703,23.651,3.944
			c1.759,0.51,3.535,0.968,5.316,1.398c4.855,1.174,8.502,3.919,11.122,8.177c3.259,5.294,4.662,11.069,4.814,17.21
			c0.217,8.787-1.541,17.152-5.446,25.039c-3.006,6.073-7.034,11.282-12.992,14.735C293.252,375.37,291.195,376.207,289.208,377.167
			z"/>
		<path fill="#E4A4FF" d="M440.882,422.217c-0.005-3.106-0.009-6.212-0.015-9.318c0.1-0.203,0.264-0.399,0.292-0.612
			c0.691-5.31,1.982-10.473,3.549-15.591c2.686-8.775,6.585-16.902,12.272-24.14c0.509-0.648,0.847-1.431,1.265-2.152
			c0.984-0.966,1.967-1.932,2.951-2.899c0.239-0.308,0.479-0.617,0.718-0.925c0,0-0.011,0.015-0.011,0.015
			c0.154-0.164,0.309-0.328,0.463-0.492c0,0-0.025,0.025-0.025,0.025c0.158-0.162,0.317-0.325,0.475-0.487
			c0,0-0.047,0.008-0.047,0.008c0.799-0.399,1.722-0.653,2.377-1.219c6.789-5.851,14.716-8.326,23.525-7.388
			c5.16,0.55,9.61,2.799,13.252,6.882c3.589,4.024,6.263,8.471,7.994,13.465c1.871,5.399,3.249,10.949,3.459,16.72
			c0.024,0.666,0.305,1.322,0.467,1.982c-0.104,0.982-0.235,1.962-0.306,2.947c-0.201,2.806-0.499,5.613-0.529,8.422
			c-0.03,2.733,0.224,5.47,0.353,8.205c-0.24,1.098-0.508,2.191-0.713,3.296c-0.725,3.892-1.49,7.777-2.124,11.684
			c-0.832,5.121-3.097,9.459-7.186,12.627c-3.789,2.935-8.179,4.693-12.928,5.509c-1.412,0.243-2.807,0.582-4.21,0.878
			c-3.189,0.001-6.378,0.002-9.567,0.003c-0.426-0.138-0.843-0.346-1.279-0.402c-9.082-1.167-17.518-3.912-24.557-10.054
			c-4.647-4.055-8.155-8.835-9.421-15.018C441.242,423.524,441.049,422.873,440.882,422.217z"/>
		<path fill="#FFD272" d="M513.363,415.665c-0.129-2.735-0.383-5.472-0.353-8.205c0.031-2.809,0.328-5.615,0.529-8.422
			c0.071-0.985,0.202-1.965,0.306-2.947c0.783-2.702,1.413-5.46,2.379-8.096c2.174-5.934,5.252-11.318,9.899-15.741
			c4.479-4.264,9.671-7.041,15.68-8.534c2.571-0.639,5.093-0.961,7.676-0.719c1.576,0.148,3.119,0.648,4.677,0.991
			c2.477,1.003,4.953,2.005,7.43,3.007c2.836,2.168,5.894,4.104,8.466,6.549c6.422,6.107,11.194,13.417,14.727,21.538
			c0.789,1.814,1.611,3.613,2.417,5.419c0.402,3.848,1.677,7.433,3.281,10.92c0.343,1.72,0.525,3.491,1.058,5.149
			c1.911,5.95,0.38,11.11-3.299,15.887c-2.853,3.704-6.567,6.434-10.459,8.817c-5.777,3.538-12.143,5.75-18.803,7.031
			c-2.686,0.517-5.399,0.889-8.1,1.327c-2.38,0.002-4.761,0.003-7.142,0.005c-0.512-0.127-1.017-0.33-1.535-0.37
			c-3.532-0.273-6.952-1.05-10.239-2.347c-4.264-1.682-7.926-4.144-10.808-7.84c-3.307-4.241-4.895-9.113-5.964-14.238
			C514.547,421.793,513.968,418.726,513.363,415.665z"/>
		<path fill="#EAFFE7" d="M805.832,375.757c0.048-0.109,0.127-0.139,0.235-0.089c1.13-0.107,2.262-0.202,3.39-0.324
			c4.773-0.518,9.542-1.259,14.357-0.931c4.552,0.311,9.112,0.655,13.627,1.285c3.916,0.547,7.778,1.488,11.651,2.316
			c1.111,0.238,2.178,0.686,3.264,1.041c0.798,0.26,1.58,0.691,2.393,0.757c3.501,0.286,6.561,1.74,9.089,3.976
			c1.845,1.632,3.181,3.851,4.677,5.858c0.495,0.665,0.783,1.484,1.166,2.234c-1.015,3.363-1.997,6.737-3.055,10.087
			c-1.63,5.159-2.41,10.434-1.984,15.825c0.272,3.438,1.176,6.767,2.533,9.957c0.238,0.559,0.417,1.144,0.623,1.716
			c-1.855,2.792-3.592,5.672-5.589,8.358c-4.109,5.527-9.611,9.093-16.274,10.772c-4.854,1.223-9.693,0.626-14.484-0.54
			c-6.242-1.519-12.457-3.223-18.246-6.01c-6.391-3.077-12.474-6.67-17.976-11.291c-4.794-4.027-8.337-8.9-11.253-14.281
			c-2.242-4.138-3.311-8.675-3.437-13.409c-0.014-0.517-0.202-1.03-0.309-1.545c0.267-1.565,0.393-3.171,0.833-4.685
			c0.676-2.32,1.568-4.577,2.369-6.86c0.117-0.098,0.264-0.175,0.346-0.296c3.192-4.762,7.527-8.078,12.807-10.243
			c2.035-0.835,4.01-1.815,6.013-2.729c0.686-0.183,1.372-0.367,2.059-0.551C805.05,376.022,805.441,375.89,805.832,375.757z"/>
		<path fill="#FF6301" d="M1053.642,375.03c8.104-0.694,14.86-4.043,20.17-10.241c0.823-0.961,1.656-1.912,2.485-2.868
			c4.059-0.834,8.057-0.309,11.859,1.061c3.867,1.394,7.545,3.28,10.851,5.802c9.162,6.99,17.191,15.119,24.19,24.255
			c1.943,2.536,3.599,5.292,5.386,7.948c-0.991,3.192-2.222,6.332-2.929,9.585c-1.9,8.743-0.658,16.975,4.729,24.331
			c1.167,1.594,2.524,3.049,3.792,4.568c-2.924,5.994-7.887,9.013-14.352,9.843c-0.135,0.026-0.271,0.051-0.406,0.077
			c-2.623-0.006-5.246-0.013-7.867-0.019c-0.259-0.031-0.52-0.062-0.78-0.094c-2.288-0.372-4.646-0.508-6.852-1.158
			c-8.519-2.509-16.64-5.988-24.077-10.876c-5.354-3.519-10.658-7.137-15.772-10.993c-3.891-2.934-7.48-6.276-11.143-9.505
			c-2.369-2.088-4.256-4.55-5.56-7.477c-2.247-5.043-2.79-10.265-1.961-15.676c0.028-0.236,0.056-0.472,0.084-0.708
			c0.693-3.827,1.922-7.477,3.785-10.886c1.229-2.248,2.616-4.41,3.932-6.611C1053.353,375.268,1053.497,375.149,1053.642,375.03z"
			/>
		<path fill="#B8FFA2" d="M1028.974,304.969c-4.292,0.002-8.584,0.005-12.876,0.007c0.509-0.117,1.017-0.331,1.527-0.336
			c3.273-0.031,6.548-0.03,9.821,0C1027.956,304.645,1028.465,304.854,1028.974,304.969z"/>
		<path fill="#2FEAFF" d="M941.273,400.637c-0.352,1.794-0.704,3.587-1.056,5.38c0.245-1.741,0.49-3.481,0.735-5.221
			C941.059,400.745,941.167,400.691,941.273,400.637z"/>
		<path fill="#2FEAFF" d="M165.311,397.891c-0.362,0.78-0.203,1.866-1.298,2.216c0.174-0.719,0.348-1.439,0.521-2.158
			C164.792,397.93,165.052,397.91,165.311,397.891z"/>
		<path fill="#8BFFED" d="M1015.254,366.103c0.717,0.311,1.433,0.621,2.149,0.932c-0.721-0.044-1.441-0.088-2.162-0.132
			C1015.246,366.637,1015.25,366.37,1015.254,366.103z"/>
		<path fill="#2FEAFF" d="M165.203,391.795c0.021-0.434,0.043-0.869,0.064-1.303C165.245,390.927,165.224,391.361,165.203,391.795z"
			/>
		<path fill="#2FEAFF" d="M165.275,376.195c-0.023-0.434-0.047-0.867-0.07-1.3C165.229,375.329,165.252,375.762,165.275,376.195z"/>
		<path fill="#2FEAFF" d="M164.755,396.392c0.021-0.284,0.042-0.569,0.063-0.853C164.797,395.823,164.776,396.108,164.755,396.392z"
			/>
		<path fill="#FFD272" d="M661.652,449.388c0.276-0.037,0.552-0.074,0.827-0.11c-0.035,0.106-0.082,0.207-0.143,0.301
			C662.107,449.515,661.879,449.452,661.652,449.388z"/>
		<path fill="#DBE0EE" d="M1119.824,449.314c6.465-0.83,11.428-3.85,14.352-9.843c1.996,1.506,3.908,3.141,6.004,4.491
			c4.144,2.671,8.742,4.268,13.56,5.254c0.437,0.089,0.854,0.27,1.281,0.409c-11.758,0-23.517,0.001-35.276,0.001
			C1119.791,449.527,1119.817,449.423,1119.824,449.314z"/>
		<path fill="#D9DFF0" d="M264.995,402.472c0.115,0.51,0.33,1.021,0.33,1.531c0.001,7.255,2.883,13.451,6.926,19.262
			c4.956,7.123,11.765,12,19.133,16.312c7.05,4.126,14.612,6.84,22.461,8.89c1.462,0.382,2.911,0.81,4.367,1.217
			c-9.483,0.005-18.966,0.013-28.449,0.014c-51.315,0.004-102.631,0.007-153.946,0.008c-0.458,0-0.916-0.031-1.375-0.048
			c0.947-0.265,1.922-0.455,2.835-0.808c2.693-1.04,5.486-1.913,8.015-3.27c5.425-2.912,8.942-7.577,10.796-13.371
			c2.067-6.456,3.89-12.991,5.739-19.515c0.559-1.971,0.849-4.019,1.263-6.032c0.12,0.893,0.318,1.784,0.348,2.68
			c0.373,11.11,4.619,20.572,12.064,28.72c3.996,4.373,8.631,7.763,14.298,9.596c6.553,2.119,12.943,1.689,19.124-1.429
			c1.227-0.619,2.481-1.187,3.738-1.742c10.374-4.584,20.301-9.986,29.382-16.794c5.993-4.493,11.707-9.387,16.336-15.332
			C260.81,409.24,262.804,405.779,264.995,402.472z"/>
		<path fill="#D9DFEF" d="M1045.407,393.593c-0.829,5.411-0.286,10.633,1.961,15.676c1.304,2.927,3.192,5.389,5.56,7.477
			c3.663,3.229,7.251,6.571,11.143,9.505c5.114,3.856,10.418,7.473,15.772,10.993c7.437,4.888,15.558,8.367,24.077,10.876
			c2.206,0.65,4.564,0.786,6.85,1.158c0.034,0.106,0.081,0.206,0.142,0.3c-0.992,0.039-1.984,0.113-2.976,0.113
			c-42.654,0.01-85.308,0.013-127.962,0.014c-0.381,0-0.763-0.031-1.145-0.048c6.501-2.068,12.653-4.996,18.686-8.095
			c8.024-4.122,15.875-8.615,22.941-14.29c5.248-4.216,10.283-8.692,14.55-13.937c3.492-4.292,6.429-8.933,8.281-14.192
			c3.459-9.819,0.459-18.653-7.544-24.878c-0.784-0.61-1.614-1.161-2.423-1.739c1.996,0.376,3.99,0.76,5.988,1.127
			c2.373,0.436,4.748,0.857,7.121,1.285c0.813,0.131,1.622,0.335,2.44,0.378c1.444,0.075,2.893,0.052,4.34,0.07
			c-1.316,2.201-2.703,4.363-3.932,6.611c-1.863,3.409-3.093,7.06-3.785,10.885C1045.463,393.119,1045.435,393.356,1045.407,393.593
			z"/>
		<path fill="#DADFF0" d="M440.882,422.217c0.166,0.656,0.36,1.307,0.495,1.969c1.266,6.184,4.773,10.963,9.421,15.018
			c7.04,6.142,15.475,8.886,24.557,10.054c0.436,0.056,0.853,0.265,1.279,0.402c-0.611,0.012-1.222,0.036-1.833,0.036
			c-47.549,0.002-95.098,0.003-142.647,0.002c-0.382,0-0.764-0.015-1.147-0.023c1.626-0.64,3.272-1.235,4.874-1.929
			c5.425-2.349,9.447-6.306,12.745-11.118c3.997-5.831,6.333-12.295,7.695-19.191c0.926-4.685,0.904-9.398,0.877-14.125
			c1.049,2.104,1.843,4.392,3.2,6.275c2.94,4.081,6.093,8.017,9.305,11.891c2.091,2.521,4.372,4.897,6.69,7.216
			c4.279,4.281,9.132,7.845,14.119,11.266c5.687,3.9,11.837,6.631,18.553,8.088c4.766,1.034,9.512,1.103,14.245-0.378
			c4.403-1.378,7.823-4.083,10.673-7.576C438.225,434.899,440.348,428.857,440.882,422.217z"/>
		<path fill="#DADFEF" d="M550.872,449.638c2.701-0.438,5.415-0.81,8.1-1.327c6.66-1.282,13.026-3.493,18.803-7.031
			c3.892-2.384,7.606-5.113,10.459-8.817c3.679-4.777,5.211-9.937,3.299-15.887c-0.533-1.659-0.715-3.43-1.058-5.149
			c2.12,3.02,4.905,5.356,7.623,7.819c8.805,7.978,18.255,14.983,28.655,20.77c5.498,3.06,11.234,5.407,17.173,7.38
			c2.958,0.983,5.982,1.53,9.056,1.894c0.029,0.108,0.068,0.213,0.116,0.314c-0.839,0.031-1.679,0.09-2.518,0.09
			c-32.549,0.004-65.099,0.003-97.648,0C552.246,449.693,551.559,449.657,550.872,449.638z"/>
		<path fill="#D8DFF0" d="M53.196,449.663c1.023-0.271,2.039-0.577,3.071-0.806c4.664-1.033,9.037-2.836,13.025-5.41
			c6.223-4.016,11.505-9.011,14.991-15.675c1.532-2.927,2.477-6.052,2.993-9.31c0.259,0.014,0.517,0.027,0.776,0.04
			c0.697,8.459,4.323,15.391,10.595,21.106c5.714,5.207,12.471,8.062,19.899,9.625c0.591,0.124,1.171,0.302,1.756,0.455
			C97.935,449.68,75.565,449.671,53.196,449.663z"/>
		<path fill="#DADFEF" d="M513.363,415.665c0.605,3.061,1.184,6.128,1.822,9.183c1.07,5.126,2.657,9.997,5.964,14.238
			c2.882,3.696,6.543,6.158,10.808,7.84c3.287,1.296,6.707,2.074,10.239,2.347c0.518,0.04,1.023,0.243,1.535,0.37
			c-5.271,0.018-10.542,0.053-15.813,0.052c-13.905-0.004-27.81-0.023-41.715-0.037c1.402-0.295,2.798-0.635,4.209-0.878
			c4.749-0.816,9.139-2.574,12.928-5.509c4.089-3.168,6.354-7.506,7.186-12.627c0.634-3.907,1.4-7.792,2.124-11.684
			C512.855,417.856,513.123,416.763,513.363,415.665z"/>
		<path fill="#FFD272" d="M653.099,449.603c-0.048-0.101-0.088-0.206-0.116-0.314c0.28,0.032,0.558,0.064,0.835,0.096
			C653.578,449.458,653.338,449.53,653.099,449.603z"/>
		<path fill="#FFD272" d="M1110.911,449.579c-0.06-0.094-0.108-0.194-0.142-0.3c0.262,0.031,0.523,0.063,0.782,0.094
			C1111.337,449.441,1111.124,449.51,1110.911,449.579z"/>
		<path fill="#FFD272" d="M1119.824,449.314c-0.007,0.109-0.033,0.213-0.079,0.312c-0.135-0.044-0.244-0.122-0.328-0.235
			C1119.554,449.365,1119.689,449.34,1119.824,449.314z"/>
		<path fill="#D8DFF0" d="M87.288,412.497c-0.547-2.137-0.843-4.381-1.692-6.391c-1.961-4.639-4.033-9.246-6.354-13.714
			c-2.638-5.077-5.597-9.987-8.409-14.974c-0.221-0.391-0.38-0.818-0.568-1.227c1.383,0.779,2.787,1.523,4.144,2.346
			c1.87,1.134,3.899,1.66,6.058,1.883c8.248,0.854,14.769-2.808,20.784-7.847c0.8-0.67,1.669-1.258,2.506-1.884
			c-0.341,0.674-0.648,1.369-1.028,2.02c-6.368,10.904-10.846,22.563-13.849,34.802c-0.399,1.625-0.531,3.315-0.787,4.974
			C87.825,412.489,87.557,412.493,87.288,412.497z"/>
		<path fill="#DADFF0" d="M112.502,358.773c-0.296,0.332-0.592,0.663-0.889,0.995C111.633,359.189,111.747,358.694,112.502,358.773z
			"/>
		<path fill="#D8DFF0" d="M104.252,369.712c-0.171,0.336-0.342,0.672-0.513,1.007C103.91,370.383,104.081,370.047,104.252,369.712z"
			/>
		<path fill="#DADFF0" d="M60.627,363.603c-0.171-0.38-0.342-0.761-0.513-1.141C60.284,362.842,60.455,363.223,60.627,363.603z"/>
		<path fill="#DADFF0" d="M111.625,359.708c-0.202,0.335-0.405,0.67-0.608,1.007C111.219,360.38,111.422,360.044,111.625,359.708z"
			/>
		<path fill="#D8DFF0" d="M70.28,376.218c-0.155-0.202-0.31-0.405-0.465-0.608C69.969,375.812,70.125,376.015,70.28,376.218z"/>
		<path fill="#8BFFED" d="M87.288,412.497c0.268-0.004,0.537-0.008,0.805-0.012c-0.013,2.006-0.027,4.011-0.04,6.016
			c-0.259-0.013-0.517-0.026-0.776-0.04C87.281,416.473,87.285,414.485,87.288,412.497z"/>
		<path fill="#2FEAFF" d="M163.97,401.032c0.036,0.102,0.086,0.202,0.102,0.307c0.006,0.037-0.072,0.087-0.112,0.131
			C163.944,401.323,163.947,401.177,163.97,401.032z"/>
		<path fill="#DBE0EE" d="M802.601,376.706c-2.002,0.914-3.978,1.895-6.013,2.729c-5.28,2.165-9.615,5.481-12.807,10.243
			c-0.081,0.121-0.229,0.199-0.346,0.296c0.019-6.876-2.826-12.394-7.968-16.828c-0.169-0.146-0.295-0.343-0.441-0.516
			c0.445,0.053,0.908,0.045,1.332,0.17c4.215,1.244,8.37,2.756,12.651,3.697c3.77,0.829,7.678,1.058,11.562,0.446
			C801.243,376.837,801.924,376.783,802.601,376.706z"/>
		<path fill="#DADFF0" d="M760.331,365.642c0.365,0.16,0.731,0.321,1.096,0.482C761.062,365.964,760.696,365.803,760.331,365.642z"
			/>
		<path fill="#D8DFF0" d="M259.456,373.415c1.033,0.249,2.071,0.479,3.098,0.75c4.421,1.166,8.817,2.438,13.265,3.486
			c3.218,0.758,6.506,0.628,9.774,0.102c0.747-0.12,1.519-0.089,2.279-0.128c-3.111,1.39-6.295,2.641-9.315,4.205
			c-3.803,1.97-7.196,4.513-9.559,8.212c-0.197,0.309-0.522,0.537-0.787,0.802C268.128,383.609,264.779,378.016,259.456,373.415z"/>
		<path fill="#D8DFF0" d="M259.007,373.041c0.15,0.128,0.3,0.255,0.45,0.383C259.307,373.296,259.157,373.168,259.007,373.041z"/>
		<path fill="#DADFEF" d="M587.195,400.507c-0.807-1.806-1.628-3.605-2.417-5.419c-3.534-8.122-8.305-15.432-14.727-21.538
			c-2.572-2.446-5.629-4.381-8.466-6.549c0.735,0.19,1.498,0.309,2.201,0.582c7.417,2.876,15.125,4.705,22.913,6.15
			c3.043,0.565,6.21,0.467,9.32,0.672c-1.236,2.009-2.467,4.02-3.709,6.025c-2.525,4.077-3.915,8.613-4.937,13.22
			C586.886,395.84,587.228,398.215,587.195,400.507z"/>
		<path fill="#FFD272" d="M618.052,361.77c-0.14,0.037-0.279,0.075-0.418,0.112C617.774,361.845,617.913,361.808,618.052,361.77z"/>
		<path fill="#DADFEF" d="M596.571,374.02c-0.2,0.135-0.401,0.271-0.602,0.406C596.17,374.29,596.37,374.155,596.571,374.02z"/>
		<path fill="#8BFFED" d="M1053.208,375.388c-1.447-0.018-2.896,0.005-4.34-0.07c-0.818-0.043-1.627-0.247-2.44-0.378
			c2.405,0.029,4.81,0.059,7.214,0.089C1053.497,375.149,1053.353,375.268,1053.208,375.388z"/>
		<path fill="#DADFF0" d="M356.795,400.967c0.138,0.789,0.276,1.579,0.414,2.368C357.071,402.546,356.933,401.757,356.795,400.967z"
			/>
		<path fill="#D9DFEF" d="M458.246,370.404c-0.418,0.721-0.755,1.504-1.265,2.152c-5.688,7.238-9.586,15.365-12.272,24.14
			c-1.567,5.119-2.858,10.282-3.549,15.591c-0.028,0.213-0.192,0.409-0.292,0.612c-0.645-6.426-2.476-12.529-4.991-18.451
			c-3.513-8.27-8.312-15.745-13.984-22.683c-0.915-1.119-1.82-2.245-2.73-3.369c1.489,0.732,2.973,1.478,4.47,2.194
			c4.876,2.332,9.919,4.133,15.319,4.789c2.601,0.667,5.203,0.66,7.806,0.01C451.1,374.911,454.833,373.026,458.246,370.404z"/>
		<path fill="#8BD0FF" d="M446.757,375.39c-2.603,0.65-5.205,0.657-7.806-0.01C441.553,375.383,444.155,375.386,446.757,375.39z"/>
		<path fill="#DADFF0" d="M461.915,366.58c-0.239,0.308-0.478,0.617-0.718,0.925C461.436,367.197,461.675,366.888,461.915,366.58z"
			/>
		<path fill="#DADFF0" d="M462.367,366.103c-0.154,0.164-0.309,0.328-0.463,0.492C462.058,366.43,462.212,366.267,462.367,366.103z"
			/>
		<path fill="#DADFF0" d="M462.817,365.64c-0.159,0.162-0.317,0.324-0.475,0.487C462.5,365.965,462.658,365.803,462.817,365.64z"/>
		<path fill="#DADFF0" d="M409.335,361.521c-0.23-0.155-0.461-0.309-0.692-0.464C408.874,361.212,409.104,361.367,409.335,361.521z"
			/>
		<path fill="#DADFF0" d="M805.832,375.757c-0.391,0.133-0.782,0.265-1.173,0.398C805.05,376.023,805.441,375.89,805.832,375.757z"
			/>
		<path fill="#FFD272" d="M1045.407,393.593c0.028-0.237,0.056-0.474,0.084-0.71
			C1045.463,393.121,1045.435,393.357,1045.407,393.593z"/>
	</g>
</g>
</svg>
