<?xml version="1.0" encoding="utf-8"?>
<!-- Generator: Adobe Illustrator 17.0.0, SVG Export Plug-In . SVG Version: 6.00 Build 0)  -->
<!DOCTYPE svg PUBLIC "-//W3C//DTD SVG 1.1//EN" "http://www.w3.org/Graphics/SVG/1.1/DTD/svg11.dtd">
<svg version="1.1" id="Layer_1" xmlns="http://www.w3.org/2000/svg" xmlns:xlink="http://www.w3.org/1999/xlink" x="0px" y="0px"
	 width="1150px" height="770.24px" viewBox="0 0 1150 770.24" enable-background="new 0 0 1150 770.24" xml:space="preserve">
<g>
	<path fill="#DADFF0" d="M1149.715,652.263c0,1.906,0,3.812,0,5.718c-0.147,0.27-0.401,0.53-0.426,0.81
		c-0.321,3.648-1.829,6.829-3.706,9.906c-4.779,7.834-11.691,13.466-19.114,18.543c-10.651,7.286-22.226,12.856-34.132,17.703
		c-20.424,8.313-41.477,14.726-62.813,20.234c-12.938,3.34-25.958,6.332-39.041,9.039c-8.738,1.808-17.485,3.581-26.259,5.204
		c-8.846,1.636-17.722,3.111-26.598,4.573c-6.694,1.102-13.409,2.084-20.117,3.098c-6.083,0.92-12.166,1.846-18.257,2.705
		c-4.141,0.584-8.302,1.022-12.444,1.592c-5.473,0.753-10.947,1.469-16.444,2.045c-6.039,0.633-12.05,1.531-18.085,2.201
		c-5.256,0.583-10.555,0.823-15.789,1.55c-7.041,0.978-14.127,1.464-21.187,2.21c-7.218,0.763-14.465,1.312-21.702,1.917
		c-8.184,0.684-16.377,1.275-24.566,1.908c-6.93,0.535-13.87,0.983-20.807,1.419c-8.283,0.521-16.571,0.982-24.858,1.439
		c-6.236,0.344-12.477,0.681-18.717,0.94c-7.431,0.309-14.865,0.504-22.289,0.994c-4.342,0.287-8.693-0.008-13.058,0.414
		c-5.19,0.502-10.451,0.356-15.666,0.432c-9.831,0.143-19.654,0.72-29.488,0.629c-5.558,0.001-11.116,0.002-16.674,0.003
		c-4.607-0.002-9.214-0.003-13.821-0.005c-12.549,0-25.098,0-37.648,0c-4.607,0.002-9.214,0.003-13.821,0.005
		c-5.558-0.001-11.116-0.002-16.674-0.003c-4.667-0.174-9.328-0.008-14.01-0.381c-6.545-0.522-13.14,0.116-19.717-0.514
		c-4.799-0.46-9.645-0.179-14.479-0.413c-8.374-0.406-16.762-0.623-25.143-1.008c-6.636-0.304-13.27-0.656-19.905-0.949
		c-8.69-0.384-17.364-0.991-26.047-1.422c-6.319-0.313-12.62-0.896-18.944-1.149c-2.43-0.097-4.905-0.141-7.33-0.452
		c-5.331-0.683-10.702-0.841-16.047-1.324c-4.641-0.42-9.301-0.63-13.943-1.044c-6.208-0.553-12.404-1.24-18.609-1.82
		c-5.659-0.528-11.334-0.9-16.986-1.501c-7.999-0.851-15.981-1.867-23.974-2.779c-6.036-0.689-12.09-1.241-18.116-2.005
		c-7.902-1.002-15.787-2.135-23.674-3.242c-9.14-1.283-18.302-2.439-27.407-3.935c-14.638-2.406-29.267-4.886-43.844-7.631
		c-14.515-2.733-28.955-5.857-43.322-9.298c-21.337-5.112-42.449-10.988-63.099-18.458c-9.17-3.318-18.189-6.994-26.997-11.167
		c-10.772-5.104-21.078-11.015-30.075-18.917c-5.143-4.518-9.564-9.65-12.228-16.15c-0.805-1.963-0.665-4.249-2.14-5.945
		c0-2.382,0-4.765,0-7.147c0.674-0.533,0.8-1.303,0.992-2.085c1.701-6.93,5.805-12.41,10.741-17.312
		c4.904-4.871,10.538-8.832,16.36-12.528c0.033,11.137,0.07,22.275,0.094,33.412c0.003,1.425,0.019,2.843,0.449,4.22
		c0.517,4.479,2.398,8.297,5.571,11.489c0.309,0.636,0.739,1.153,1.412,1.431c3.003,3.241,6.766,4.984,11.085,5.636
		c0.263,0.036,0.525,0.071,0.788,0.107c1.591,0.687,3.274,0.441,4.92,0.441c237.83,0.012,475.66,0.011,713.491,0.011
		c111.093,0,222.187,0.001,333.28-0.011c1.647,0,3.333,0.238,4.918-0.472l0.203,0.033c0,0,0.183-0.093,0.183-0.093
		c2.264-0.309,4.466-0.782,6.271-2.328c3.545-1.26,6.031-3.762,8.027-6.839c0.859-0.666,1.234-1.605,1.483-2.616
		c0.577-0.351,0.85-0.88,0.899-1.539c0.703-1.648,1.125-3.377,1.478-5.125c0.681-1.175,0.446-2.474,0.447-3.72
		c0.011-11.991-0.02-23.982-0.02-35.973c-0.002-197.973-0.001-395.947,0.002-593.92c0-0.872,0.049-1.743,0.074-2.615
		c0.758,0.997,0.39,2.151,0.39,3.225c0.018,197.431,0.024,394.861-0.047,592.292c-0.001,2.714,0.789,4.313,3.096,5.697
		c6.722,4.032,12.443,9.29,17.24,15.46c3.018,3.883,5.612,8.087,5.951,13.235C1149.286,651.014,1149.047,651.747,1149.715,652.263z"
		/>
	<path d="M44.747,0.456c0.472-0.175,0.945-0.351,1.417-0.526c0.46-0.016,0.92-0.032,1.381-0.048c0.546,0.048,1.13,0.237,1.486-0.407
		c350.694,0,701.388,0,1052.082,0c0.378,0.58,0.934,0.499,1.494,0.405c0.286,0.059,0.573,0.117,0.859,0.176
		c-0.723,0.634-1.629,0.209-2.424,0.419c-0.794,0.007-1.587,0.021-2.381,0.021c-345.404,0.001-690.808,0-1036.212,0.008
		c-5.71,0-11.43-0.256-17.12,0.488C45.135,0.815,44.941,0.636,44.747,0.456z"/>
	<path fill="#E3E7F3" d="M556.01,769.481c12.549,0,25.098,0,37.648,0c-0.002,0.158-0.003,0.316-0.003,0.474
		c-12.547,0-25.095,0-37.642,0C556.013,769.797,556.012,769.639,556.01,769.481z"/>
	<path fill="#F7F9FC" d="M525.517,769.955c0-0.157,0-0.314-0.003-0.471c5.558,0.001,11.116,0.002,16.675,0.003
		c0.003,0.156,0.005,0.313,0.005,0.469C536.635,769.955,531.076,769.955,525.517,769.955z"/>
	<path fill="#F7F9FC" d="M624.153,769.483c-0.002,0.157-0.003,0.314-0.003,0.471c-5.559,0-11.118,0-16.677,0
		c0-0.156,0.002-0.312,0.005-0.469C613.036,769.485,618.595,769.484,624.153,769.483z"/>
	<path fill="#ECEFF7" d="M607.478,769.486c-0.003,0.156-0.005,0.313-0.005,0.469c-4.606,0-9.212,0-13.818,0
		c0-0.158,0.001-0.316,0.003-0.474C598.264,769.483,602.871,769.484,607.478,769.486z"/>
	<path fill="#ECEFF7" d="M542.195,769.955c0-0.156-0.002-0.313-0.005-0.469c4.607-0.002,9.214-0.003,13.821-0.005
		c0.002,0.158,0.003,0.316,0.003,0.474C551.407,769.955,546.801,769.955,542.195,769.955z"/>
	<path fill="#EFF1F8" d="M1149.254,650.346c0.154,0.005,0.307,0.009,0.461,0.011c0,0.635,0,1.271,0,1.906
		C1149.047,651.747,1149.286,651.014,1149.254,650.346z"/>
	<path fill="#B7B7B7" d="M1103.466,0.058c-0.286-0.059-0.573-0.117-0.859-0.176c-0.022-0.135-0.043-0.27-0.065-0.405
		c0.477,0,0.953,0,1.429,0c-0.016,0.146-0.01,0.291,0.018,0.436C1103.815-0.039,1103.641,0.009,1103.466,0.058z"/>
	<path fill="#515151" d="M1102.542-0.524c0.021,0.135,0.043,0.27,0.065,0.405c-0.56,0.094-1.117,0.174-1.494-0.405
		C1101.59-0.524,1102.066-0.524,1102.542-0.524z"/>
	<path fill="#5B5B5B" d="M49.031-0.524c-0.356,0.644-0.941,0.454-1.486,0.407c0.036-0.133,0.055-0.269,0.057-0.407
		C48.078-0.524,48.555-0.524,49.031-0.524z"/>
	<path fill="#C1C1C1" d="M47.602-0.524c-0.002,0.138-0.021,0.274-0.057,0.407c-0.46,0.016-0.921,0.032-1.381,0.047
		c0.022-0.151,0.024-0.303,0.008-0.454C46.649-0.524,47.125-0.524,47.602-0.524z"/>
	<path d="M27.57,618.908c0.033-1.029,0.095-2.058,0.095-3.087c0.004-197.441,0.004-394.882,0.001-592.323
		c0-1.668-0.033-3.334,0.453-4.955c0,0,0.211,0.001,0.211,0.001l0.211-0.005c0.024,0.665,0.048,1.331,0.071,1.996
		c-0.001,1.032-0.002,2.064-0.002,3.096c0,209.52,0,419.041-0.001,628.561c0,0.794-0.014,1.587-0.022,2.381
		c-0.16,0.655,0.155,1.425-0.475,1.967c-0.429-1.377-0.446-2.795-0.449-4.22C27.639,641.183,27.603,630.045,27.57,618.908z"/>
	<path fill="#001114" d="M46.969,675.203c-0.263-0.036-0.525-0.071-0.788-0.107c0.166-0.154,0.333-0.308,0.499-0.462
		c0.495-0.014,0.991-0.029,1.487-0.043c3.334,0.011,6.668,0.032,10.002,0.032c344.981,0.002,689.962,0.002,1034.943-0.001
		c3.096,0,6.192-0.034,9.287-0.052c0.546,0.111,1.171-0.01,1.564,0.542l-0.183,0.093c0,0-0.203-0.033-0.203-0.033
		c-1.349-0.012-2.698-0.034-4.046-0.034c-349.426-0.002-698.853-0.002-1048.279,0.001C49.823,675.139,48.396,675.181,46.969,675.203
		z"/>
	<path fill="#182428" d="M46.969,675.203c1.427-0.022,2.855-0.064,4.282-0.064c349.426-0.003,698.853-0.003,1048.279-0.001
		c1.349,0,2.698,0.022,4.046,0.034c-1.585,0.71-3.271,0.472-4.918,0.472c-111.093,0.012-222.187,0.011-333.28,0.011
		c-237.83,0-475.66,0.001-713.491-0.011C50.243,675.644,48.559,675.89,46.969,675.203z"/>
	<path fill="#001114" d="M1122.064,18.064c0.116,0.116,0.132,0.245,0.047,0.386c-0.012,0.556-0.035,1.111-0.035,1.666
		c-0.001,211.072,0,422.143,0.003,633.214c0,1.111,0.028,2.222,0.043,3.333c-0.354,1.749-0.775,3.478-1.478,5.125
		c-0.389-0.22-0.461-0.599-0.499-0.995c0.356-1.264,0.713-2.528,1.069-3.792c0.473-0.419,0.387-0.965,0.338-1.501
		c0.006-3.811,0.018-7.621,0.018-11.432c0.001-202.941,0.004-405.881-0.017-608.822c0-6.014,0.405-12.046-0.481-18.039
		c0.052-0.414,0.122-0.818,0.532-1.05c0.127,0.073,0.147,0.169,0.06,0.288C1121.592,17.035,1121.513,17.628,1122.064,18.064z"/>
	<path fill="#0F1617" d="M1122.121,656.664c-0.015-1.111-0.043-2.222-0.043-3.333c-0.003-211.072-0.003-422.143-0.003-633.214
		c0-0.555,0.023-1.111,0.035-1.666c0.497,0.578,0.282,1.34,0.513,1.986c-0.026,0.872-0.074,1.743-0.074,2.615
		c-0.003,197.973-0.004,395.947-0.002,593.92c0,11.991,0.031,23.982,0.02,35.973C1122.567,654.19,1122.802,655.489,1122.121,656.664
		z"/>
	<path fill="#0B1315" d="M28.113,656.54c0.629-0.542,0.315-1.312,0.474-1.967c0.803,4.785,2.546,9.157,5.678,12.918
		c-0.194,0.179-0.388,0.358-0.582,0.537C30.511,664.838,28.63,661.019,28.113,656.54z"/>
	<path fill="#071316" d="M46.68,674.634c-0.166,0.154-0.333,0.308-0.499,0.463c-4.319-0.652-8.083-2.395-11.085-5.636
		c0.236-0.032,0.472-0.064,0.709-0.096c0.291,0.093,0.662,0.102,0.863,0.291c2.819,2.648,6.316,3.811,9.983,4.615
		C46.651,674.392,46.661,674.513,46.68,674.634z"/>
	<path fill="#081315" d="M1118.26,665.944c-1.996,3.077-4.482,5.58-8.027,6.839c-0.183-0.168-0.366-0.336-0.549-0.504
		c3.186-1.846,5.916-4.209,8.132-7.156C1118.149,665.298,1118.24,665.602,1118.26,665.944z"/>
	<path fill="#10191C" d="M1109.685,672.28c0.183,0.168,0.366,0.336,0.549,0.504c-1.804,1.546-4.007,2.02-6.271,2.328
		c-0.393-0.552-1.019-0.431-1.564-0.542C1104.879,673.968,1107.348,673.334,1109.685,672.28z"/>
	<path fill="#111618" d="M1118.26,665.944c-0.021-0.342-0.112-0.646-0.443-0.82c0.474-0.792,0.949-1.585,1.423-2.377
		c0.168,0.194,0.335,0.388,0.503,0.581C1119.494,664.339,1119.119,665.279,1118.26,665.944z"/>
	<path fill="#081417" d="M35.804,669.365c-0.236,0.032-0.472,0.064-0.709,0.096c-0.672-0.278-1.102-0.795-1.412-1.431
		c0.194-0.179,0.388-0.358,0.582-0.537C35.039,667.902,35.625,668.466,35.804,669.365z"/>
	<path fill="#101C1F" d="M1119.743,663.328c-0.168-0.194-0.335-0.388-0.503-0.581c0.249-0.675,0.397-1.397,0.903-1.953
		c0.038,0.396,0.11,0.775,0.499,0.995C1120.593,662.448,1120.32,662.977,1119.743,663.328z"/>
	<path fill="#0C1A1C" d="M28.612,20.535c-0.024-0.665-0.048-1.331-0.071-1.996c-0.021-0.55-0.042-1.1-0.063-1.65
		c0.172-2.542,1.248-4.7,2.826-6.644c0.177,0.221,0.354,0.442,0.532,0.662C30.203,13.93,29.264,17.185,28.612,20.535z"/>
	<path fill="#101718" d="M31.835,10.908c-0.177-0.221-0.354-0.442-0.532-0.662c1.313-2.553,3.295-4.486,5.642-6.079
		c0.221,0.196,0.442,0.392,0.664,0.588C35.418,6.556,33.547,8.657,31.835,10.908z"/>
	<path fill="#10191B" d="M37.609,4.755c-0.221-0.196-0.442-0.392-0.664-0.589c2.278-1.914,4.889-3.129,7.801-3.71
		c0.194,0.179,0.388,0.358,0.582,0.537C42.598,1.923,40.053,3.235,37.609,4.755z"/>
	<path fill="#161C1D" d="M28.477,16.89c0.021,0.55,0.042,1.1,0.063,1.65c0,0-0.211,0.005-0.211,0.005s-0.211-0.001-0.211-0.001
		C28.027,17.946,28.054,17.375,28.477,16.89z"/>
	<path fill="#081518" d="M1108.133,1.387c1.473,0.803,2.946,1.605,4.419,2.408c0.263,0.575,0.699,0.901,1.342,0.926
		c0.882,1.044,2.494,1.3,2.986,2.764c-0.19,0.195-0.38,0.39-0.57,0.585c-3.327-3.461-7.329-5.792-11.929-7.122
		c0.337-0.016,0.674-0.033,1.011-0.049c0.496-0.009,0.992-0.019,1.489-0.028c0,0-0.03-0.015-0.03-0.015
		C1107.116,1.425,1107.638,1.374,1108.133,1.387z"/>
	<path fill="#0E1A1D" d="M1116.31,8.07c0.19-0.195,0.38-0.39,0.57-0.586c1.51,1.337,2.553,2.986,3.26,4.861
		c-0.362,0.235-0.436,0.605-0.466,0.995C1118.552,11.584,1117.431,9.827,1116.31,8.07z"/>
	<path fill="#0F1617" d="M1119.674,13.341c0.029-0.391,0.104-0.76,0.466-0.995c0.743,1.172,1.34,2.401,1.464,3.811
		c-0.411,0.232-0.481,0.637-0.532,1.05C1120.605,15.919,1120.14,14.63,1119.674,13.341z"/>
	<path fill="#0D1516" d="M1103.466,0.058c0.174-0.048,0.349-0.097,0.523-0.145c0.354,0.151,0.708,0.302,1.062,0.454
		c-0.386,0.119-0.827,0.124-1.081,0.519c-0.996,0.007-2.006,0.113-2.929-0.408C1101.838,0.266,1102.744,0.692,1103.466,0.058z"/>
	<path fill="#0D1516" d="M1113.894,4.721c-0.643-0.026-1.079-0.351-1.342-0.926C1113.228,3.771,1113.651,4.115,1113.894,4.721z"/>
	<path fill="#0F1617" d="M1122.064,18.064c-0.552-0.436-0.472-1.028-0.401-1.618C1122.087,16.913,1122.135,17.473,1122.064,18.064z"
		/>
	<path fill="#0D1516" d="M1108.133,1.387c-0.495-0.013-1.017,0.039-1.284-0.53C1107.347,0.865,1107.858,0.841,1108.133,1.387z"/>
	<path fill="#0D1516" d="M1106.88,0.871c-0.496,0.009-0.992,0.019-1.488,0.028c0.007-0.153,0.01-0.306,0.009-0.459
		C1105.961,0.353,1106.468,0.447,1106.88,0.871z"/>
	<path d="M1105.401,0.441c0.001,0.153-0.002,0.306-0.009,0.459c-0.337,0.016-0.674,0.033-1.011,0.049
		c-0.144,0.027-0.281,0.006-0.41-0.064c0.253-0.395,0.694-0.401,1.081-0.519C1105.19,0.288,1105.306,0.313,1105.401,0.441z"/>
	<path fill="#0089A2" d="M1103.971,0.885c0.129,0.07,0.266,0.091,0.41,0.064c4.6,1.33,8.602,3.66,11.929,7.122
		c1.121,1.757,2.243,3.514,3.364,5.271c0.466,1.289,0.932,2.577,1.397,3.866c0.886,5.993,0.481,12.026,0.481,18.039
		c0.021,202.941,0.018,405.881,0.017,608.822c0,3.81-0.012,7.621-0.018,11.432c-0.341,0.449-0.413,0.958-0.338,1.501
		c-0.356,1.264-0.713,2.528-1.069,3.792c-0.506,0.556-0.654,1.278-0.903,1.953c-0.474,0.792-0.949,1.585-1.423,2.377
		c-2.216,2.947-4.947,5.31-8.132,7.156c-2.337,1.054-4.806,1.688-7.286,2.29c-3.096,0.018-6.192,0.052-9.288,0.052
		c-344.981,0.002-689.962,0.002-1034.943,0.001c-3.334,0-6.668-0.021-10.002-0.032c-0.454-0.351-0.971-0.401-1.516-0.321
		c-3.667-0.804-7.164-1.966-9.983-4.615c-0.201-0.189-0.571-0.198-0.863-0.291c-0.179-0.899-0.765-1.463-1.539-1.873
		c-3.133-3.761-4.875-8.133-5.678-12.919c0.008-0.794,0.022-1.588,0.022-2.381c0.001-209.52,0.001-419.041,0.001-628.561
		c0-1.032,0.001-2.064,0.002-3.096c0.653-3.35,1.591-6.605,3.224-9.627c1.711-2.251,3.582-4.353,5.774-6.153
		c2.443-1.52,4.988-2.832,7.72-3.762c5.69-0.744,11.41-0.488,17.12-0.488c345.404-0.008,690.808-0.007,1036.212-0.008
		c0.794,0,1.588-0.014,2.381-0.021C1101.964,0.998,1102.974,0.892,1103.971,0.885z M60.895,636.205
		c-0.105,0.965,0.21,1.836,0.6,2.689c0.568,1.973,1.373,3.828,2.704,5.42c0.033,0.666,0.444,1.067,0.969,1.39
		c2.049,2.779,4.558,5.011,7.701,6.492c2.658,1.505,5.458,2.509,8.567,2.416c0.95,0.033,1.901,0.096,2.851,0.096
		c327.985,0.004,655.97,0.004,983.955,0c0.951,0,1.902-0.057,2.852-0.087c4.216,0.004,7.826-1.569,11.019-4.23
		c4.896-3.948,7.946-8.922,8.483-15.289c0.068-1.585,0.197-3.169,0.197-4.754c0.009-185.351,0.009-370.701-0.001-556.052
		c0-1.584-0.137-3.169-0.211-4.753c0.084-1.381-0.225-2.673-0.878-3.888c-0.158-0.175-0.316-0.349-0.474-0.524
		c-1.894-6.441-6.177-10.546-12.44-12.712c-0.118-0.082-0.249-0.115-0.392-0.1c-1.222-0.633-2.517-0.942-3.897-0.867
		c-1.109-0.037-2.219-0.108-3.328-0.108c-328.53-0.005-657.06-0.005-985.59,0c-1.03,0-2.06,0.065-3.089,0.1
		c-1.163-0.181-2.242,0.185-3.329,0.505c-1.94,0.304-3.689,1.086-5.337,2.123c-1.676,0.645-3.109,1.632-4.249,3.028
		c-0.938,0.63-1.95,1.207-1.815,2.589c0.074,0.301-0.028,0.423-0.339,0.332c-0.604-0.107-0.963,0.095-1.326,0.655
		c-1.949,3.006-3.45,6.155-3.564,9.819c-0.032,0.951-0.093,1.901-0.093,2.852c-0.004,185.985-0.004,371.969,0,557.954
		c0,0.951,0.061,1.901,0.094,2.852C60.466,634.872,60.461,635.577,60.895,636.205z M73.355,6.2
		c-1.669,0.374-3.145,1.128-4.428,2.259c-0.561,0.172-1.014,0.492-1.336,0.987c-1.512,1.18-3.039,2.345-3.868,4.159
		c-0.638,0.567-1.052,1.277-1.326,2.077c-1.619,2.767-2.529,5.732-2.493,8.96c-0.47,0.853-0.47,1.706,0,2.559
		c0.013,1.422-0.076,2.859,0.595,4.187c1.112,4.759,3.586,8.617,7.581,11.471c2.496,2.096,5.37,3.318,8.597,3.729
		c0.454,0.045,0.909,0.09,1.363,0.135c1.153,0.523,2.309,0.517,3.468,0.016c2.518-0.105,4.906-0.667,7.076-2.002
		c0.636-0.075,1.144-0.382,1.553-0.865c3.372-1.926,5.845-4.667,7.444-8.202c4.357-7.986,2.614-19.093-4.08-25.105
		c-1.519-1.364-2.878-3.298-5.394-2.968c0.11-0.696-0.339-0.972-0.884-1.179c-4.457-1.696-8.947-1.98-13.482-0.31
		C73.602,6.091,73.473,6.121,73.355,6.2z"/>
	<path fill="#182428" d="M46.65,674.27c0.545-0.08,1.063-0.031,1.516,0.321c-0.496,0.014-0.991,0.029-1.487,0.043
		C46.661,674.513,46.651,674.392,46.65,674.27z"/>
	<path fill="#101C1F" d="M1121.213,657.002c-0.075-0.543-0.002-1.052,0.338-1.501C1121.6,656.037,1121.686,656.582,1121.213,657.002
		z"/>
	<path d="M80.494,51.448c1.03-0.035,2.06-0.1,3.089-0.1c328.53-0.004,657.06-0.004,985.59,0c1.109,0,2.219,0.07,3.328,0.108
		c-0.697,0.7-1.611,0.261-2.403,0.459c-1.031-0.009-2.063-0.024-3.095-0.024c-327.158-0.001-654.315-0.001-981.473,0
		c-1.032,0-2.064,0.015-3.096,0.023C81.779,51.797,81.027,52.077,80.494,51.448z"/>
	<path d="M1071.095,654.624c-0.951,0.03-1.901,0.087-2.852,0.087c-327.985,0.004-655.97,0.004-983.955,0
		c-0.95,0-1.901-0.063-2.851-0.096c-0.003-0.151-0.004-0.302-0.003-0.454c0.715,0.003,1.429,0.008,2.144,0.008
		c328.457,0,656.914,0,985.371,0c0.715,0,1.429-0.008,2.144-0.012C1071.096,654.312,1071.097,654.468,1071.095,654.624z"/>
	<path fill="#001519" d="M65.425,60.025c-1.265,2.509-3.076,4.744-3.703,7.582c-0.098,0.444-0.256,0.874-0.258,1.342
		c-0.006,1.665-0.025,3.33-0.025,4.995c-0.001,185.706-0.001,371.412-0.004,557.118c0,1.031-0.046,2.061-0.07,3.092
		c-0.139,0.002-0.279,0.003-0.418,0.001c-0.001-77.013-0.004-154.026-0.004-231.039c-0.001-109.883,0.001-219.765-0.02-329.648
		c0-0.986,0.398-2.068-0.388-2.968c0.114-3.664,1.615-6.813,3.564-9.819C64.462,60.12,64.821,59.918,65.425,60.025z"/>
	<path fill="#0A171A" d="M1089.723,635.581c0.356-67.161,0.117-134.322,0.144-201.482c0.046-119.007,0.011-238.015,0.021-357.022
		c0-3.49-0.017-6.972-0.666-10.417c0.377-0.229,0.421-0.619,0.483-1c0.653,1.215,0.963,2.507,0.878,3.888
		c-0.582,0.593-0.375,1.338-0.375,2.035c0.002,59.223,0.016,118.446,0.013,177.669c-0.008,128.608-0.025,257.215-0.038,385.823
		C1090.03,635.242,1089.877,635.411,1089.723,635.581z"/>
	<path d="M1090.183,635.073c0.013-128.608,0.03-257.215,0.038-385.823c0.004-59.223-0.011-118.446-0.013-177.669
		c0-0.696-0.207-1.441,0.375-2.035c0.073,1.584,0.211,3.169,0.211,4.753c0.01,185.351,0.01,370.701,0.001,556.052
		c0,1.585-0.128,3.169-0.197,4.754C1090.458,635.107,1090.32,635.097,1090.183,635.073z"/>
	<path fill="#001114" d="M60.535,70.498c0.786,0.9,0.388,1.982,0.388,2.968c0.021,109.883,0.019,219.765,0.02,329.648
		c0.001,77.013,0.003,154.026,0.004,231.039c0,0-0.007,0.006-0.007,0.006c-0.134-0.002-0.269-0.004-0.404-0.004
		c-0.033-0.951-0.094-1.901-0.094-2.852c-0.004-185.985-0.004-371.969,0-557.954C60.442,72.399,60.503,71.449,60.535,70.498z"/>
	<path fill="#080F10" d="M88.108,7.597c2.516-0.33,3.876,1.604,5.394,2.968c6.694,6.012,8.437,17.12,4.08,25.105
		c-0.356-0.243-0.426-0.616-0.458-1.007c0.03-0.236,0.009-0.494,0.098-0.705c3.27-7.776,1.93-14.837-3.211-21.365
		c-1.644-2.088-4.042-3.22-5.923-4.993L88.108,7.597z"/>
	<path fill="#0A1517" d="M1090.183,635.073c0.137,0.024,0.275,0.034,0.414,0.032c-0.537,6.367-3.587,11.34-8.483,15.289
		c-0.2-0.222-0.4-0.445-0.6-0.667c4.212-3.859,7.2-8.429,8.21-14.147C1089.877,635.411,1090.03,635.242,1090.183,635.073z"/>
	<path fill="#0D1618" d="M1088.78,65.708c-2.362-6.298-6.771-10.505-13.06-12.794c0.382-0.108,0.813-0.11,1.071-0.49
		c6.263,2.166,10.546,6.27,12.44,12.712C1089.08,65.326,1088.93,65.517,1088.78,65.708z"/>
	<path fill="#0D1719" d="M1081.513,649.727c0.2,0.222,0.4,0.445,0.6,0.667c-3.193,2.661-6.803,4.233-11.019,4.23
		c0.002-0.156,0.002-0.312-0.002-0.467c-0.001-0.134,0.005-0.267,0.017-0.401C1074.998,653.497,1078.34,651.83,1081.513,649.727z"/>
	<path fill="#0D1B1D" d="M68.081,42.86c-3.995-2.854-6.469-6.713-7.581-11.471c0.528-0.385,0.407-0.98,0.488-1.509
		c1.321,4.731,3.416,9.014,7.149,12.348C68.119,42.438,68.1,42.649,68.081,42.86z"/>
	<path fill="#0B1517" d="M60.989,29.879c-0.081,0.53,0.04,1.124-0.488,1.509c-0.671-1.329-0.582-2.765-0.595-4.187
		c0-0.853,0-1.706,0-2.559c-0.036-3.228,0.874-6.192,2.493-8.96c0.165,0.189,0.331,0.378,0.496,0.567
		c-0.66,2.193-1.319,4.385-1.979,6.578c-0.772,2.062-0.761,4.126-0.01,6.19C60.933,29.304,60.961,29.592,60.989,29.879z"/>
	<path fill="#0B1416" d="M97.125,34.664c0.032,0.391,0.101,0.764,0.458,1.007c-1.599,3.535-4.073,6.276-7.445,8.202
		c-0.218-0.228-0.437-0.455-0.655-0.683C92.846,41.079,95.261,38.118,97.125,34.664z"/>
	<path fill="#0A1719" d="M73.742,6.107c4.535-1.669,9.024-1.386,13.482,0.311c0.545,0.207,0.994,0.483,0.884,1.179
		c0,0-0.019,0.004-0.019,0.004c-1.239,0.08-2.319-0.352-3.324-1.027c-0.415-0.511-0.982-0.421-1.534-0.39
		c-0.135,0.088-0.258,0.072-0.367-0.045c-1.901-0.763-3.806-0.713-5.716-0.035c-0.782,0.228-1.536,0.586-2.384,0.498
		C74.526,6.223,74.13,6.175,73.742,6.107z"/>
	<path fill="#0D1618" d="M68.081,42.86c0.019-0.211,0.038-0.422,0.057-0.633c0.467,0.011,0.886,0.09,1.297,0.387
		c2.309,1.671,4.951,2.552,7.704,3.15c-0.002,0.132,0.006,0.264,0.025,0.395c-0.162,0.143-0.324,0.286-0.486,0.429
		C73.452,46.178,70.577,44.956,68.081,42.86z"/>
	<path fill="#0E181A" d="M65.693,645.117c2.137,2.873,5.182,4.653,8.029,6.672c-0.343,0.014-0.656,0.09-0.853,0.409
		c-3.142-1.482-5.652-3.714-7.701-6.492C65.344,645.509,65.519,645.313,65.693,645.117z"/>
	<path fill="#091213" d="M76.678,46.589c0.162-0.143,0.324-0.286,0.485-0.429c1.901-0.101,3.856,0.519,5.695-0.425
		c1.957-0.512,3.893-1.082,5.687-2.048c0.013,0.35,0.026,0.7,0.039,1.051c-2.17,1.336-4.558,1.898-7.076,2.002
		c-1.156-0.006-2.312-0.011-3.468-0.016C77.587,46.679,77.133,46.634,76.678,46.589z"/>
	<path fill="#091619" d="M72.87,652.198c0.197-0.319,0.51-0.394,0.853-0.409c2.431,1.175,5.052,1.613,7.693,1.968
		c0.013,0.134,0.019,0.268,0.018,0.403c-0.001,0.151,0,0.302,0.003,0.454C78.328,654.707,75.528,653.702,72.87,652.198z"/>
	<path fill="#151F21" d="M78.753,52.466c-2.276,0.783-4.552,1.566-6.828,2.349c-0.032-0.246-0.065-0.492-0.097-0.739
		c1.648-1.037,3.398-1.819,5.337-2.123C77.581,52.477,78.229,52.28,78.753,52.466z"/>
	<path fill="#0E1A1C" d="M61.931,637.416c0.66,2.075,1.987,3.883,2.425,6.047c-0.052,0.284-0.104,0.568-0.156,0.852
		c-1.331-1.592-2.137-3.447-2.704-5.42C61.987,638.504,61.832,637.922,61.931,637.416z"/>
	<path fill="#10181A" d="M63.723,13.605c0.83-1.814,2.357-2.979,3.869-4.159c0.209,0.188,0.417,0.377,0.626,0.565
		c-1.334,1.412-2.668,2.824-4.002,4.236C64.051,14.034,63.887,13.819,63.723,13.605z"/>
	<path fill="#0D191B" d="M68.928,8.459c1.283-1.131,2.758-1.885,4.428-2.259c0.254,0.385,0.686,0.385,1.067,0.497
		c-1.628,0.786-3.256,1.572-4.884,2.358C69.335,8.857,69.131,8.658,68.928,8.459z"/>
	<path fill="#122023" d="M71.828,54.076c0.032,0.246,0.065,0.492,0.097,0.739c-1.262,0.966-2.523,1.933-3.785,2.899
		c-0.187-0.203-0.374-0.406-0.562-0.609C68.719,55.708,70.152,54.721,71.828,54.076z"/>
	<path fill="#0E1B1D" d="M1070.098,51.916c0.793-0.199,1.707,0.24,2.404-0.46c1.38-0.074,2.674,0.235,3.897,0.867
		c-0.384,0.075-0.785,0.117-1.016,0.502c-1.727-0.203-3.432-0.621-5.189-0.537C1070.158,52.165,1070.127,52.041,1070.098,51.916z"/>
	<path fill="#000C0E" d="M78.753,52.466c-0.524-0.186-1.173,0.011-1.588-0.513c1.087-0.32,2.166-0.686,3.329-0.505
		c0.533,0.629,1.285,0.349,1.939,0.465c-0.032,0.125-0.067,0.25-0.106,0.373C81.136,52.346,79.945,52.406,78.753,52.466z"/>
	<path fill="#0C1517" d="M67.579,57.104c0.187,0.203,0.374,0.406,0.562,0.609c-0.679,0.796-1.2,1.782-2.377,1.98
		C65.629,58.311,66.641,57.734,67.579,57.104z"/>
	<path fill="#001114" d="M61.931,637.416c-0.1,0.507,0.056,1.088-0.435,1.479c-0.391-0.854-0.706-1.725-0.6-2.69
		c0.015-0.682,0.029-1.364,0.044-2.046c0,0,0.007-0.006,0.007-0.006c0.14,0.002,0.279,0.001,0.418-0.001
		c0.04,0.391,0.081,0.783,0.121,1.175c-0.078,0.608-0.18,1.22,0.372,1.688C61.98,637.131,62.004,637.264,61.931,637.416z"/>
	<path fill="#0F191B" d="M63.723,13.605c0.164,0.214,0.328,0.428,0.492,0.642c-0.207,0.821-0.61,1.513-1.322,2.001
		c-0.165-0.189-0.331-0.378-0.496-0.567C62.671,14.882,63.085,14.172,63.723,13.605z"/>
	<path fill="#0C1314" d="M68.928,8.459c0.204,0.199,0.407,0.398,0.611,0.597c-0.318,0.488-0.798,0.752-1.321,0.956
		c-0.209-0.188-0.417-0.377-0.626-0.565C67.914,8.951,68.367,8.631,68.928,8.459z"/>
	<path fill="#12191A" d="M64.2,644.315c0.052-0.284,0.104-0.568,0.156-0.852c0.422,0.571,1.33,0.748,1.337,1.655
		c-0.175,0.196-0.349,0.392-0.524,0.588C64.645,645.382,64.233,644.981,64.2,644.315z"/>
	<path fill="#202E31" d="M78.042,46.724c1.156,0.005,2.312,0.01,3.468,0.016C80.351,47.24,79.195,47.247,78.042,46.724z"/>
	<path fill="#101A1C" d="M88.585,44.738c-0.013-0.35-0.026-0.7-0.039-1.051c0.141-0.49,0.599-0.38,0.937-0.497
		c0.218,0.228,0.436,0.455,0.655,0.683C89.729,44.356,89.221,44.662,88.585,44.738z"/>
	<path fill="#1F2B2D" d="M59.905,24.642c0,0.853,0,1.706,0,2.559C59.435,26.348,59.435,25.495,59.905,24.642z"/>
	<path fill="#011215" d="M60.94,634.159c-0.015,0.682-0.029,1.363-0.044,2.046c-0.434-0.628-0.429-1.333-0.359-2.049
		C60.671,634.156,60.805,634.157,60.94,634.159z"/>
	<path fill="#000102" d="M1088.78,65.708c0.15-0.191,0.301-0.382,0.451-0.572c0.158,0.174,0.316,0.349,0.474,0.523
		c-0.062,0.381-0.106,0.771-0.483,1C1089.036,66.36,1088.671,66.144,1088.78,65.708z"/>
	<path fill="#000102" d="M1075.382,52.825c0.232-0.385,0.632-0.427,1.016-0.502c0.143-0.015,0.274,0.019,0.392,0.1
		c-0.258,0.379-0.689,0.382-1.071,0.49c0,0-0.188,0.028-0.188,0.028L1075.382,52.825z"/>
	<path fill="#000102" d="M74.423,6.697c-0.381-0.112-0.813-0.113-1.067-0.497c0.117-0.078,0.246-0.109,0.387-0.093
		c0.387,0.067,0.784,0.115,1.02,0.495C74.676,6.731,74.563,6.762,74.423,6.697z"/>
	<path fill="#3F3F3F" d="M81.433,654.16c0.001-0.135-0.006-0.269-0.018-0.403c0.792-0.022,1.584-0.062,2.376-0.062
		c328.314-0.003,656.628-0.003,984.942,0c0.792,0,1.584,0.04,2.376,0.061c-0.012,0.134-0.018,0.267-0.017,0.401
		c-0.715,0.004-1.429,0.011-2.144,0.011c-328.457,0-656.914,0.001-985.371,0C82.863,654.168,82.148,654.163,81.433,654.16z"/>
	<path fill="#7F7F7F" d="M82.327,52.285c0.039-0.123,0.074-0.248,0.106-0.373c1.034-0.007,2.066-0.022,3.098-0.022
		c327.158-0.001,654.315-0.001,981.473,0c1.032,0,2.064,0.015,3.095,0.024c0.027,0.126,0.059,0.25,0.094,0.372
		c-0.791,0.026-1.582,0.075-2.373,0.075c-327.787,0.003-655.574,0.003-983.361,0C83.749,52.363,83.038,52.312,82.327,52.285z"/>
	<path fill="#0E1A1C" d="M61.858,637.015c-0.552-0.468-0.45-1.08-0.372-1.688C61.843,635.838,61.922,636.411,61.858,637.015z"/>
	<path fill="#FFFFFF" d="M74.423,6.697c0.14,0.065,0.254,0.034,0.34-0.095c0.848,0.088,1.603-0.27,2.384-0.498
		c1.905,0.012,3.811,0.023,5.716,0.035c0.11,0.118,0.232,0.133,0.367,0.045c0.465,0.313,0.972,0.457,1.534,0.39
		c1.005,0.675,2.086,1.107,3.324,1.027c1.881,1.773,4.279,2.905,5.923,4.993c5.14,6.528,6.481,13.589,3.211,21.365
		c-0.089,0.211-0.067,0.469-0.098,0.705c-1.864,3.455-4.278,6.416-7.642,8.526c-0.338,0.117-0.797,0.008-0.937,0.497
		c-1.794,0.966-3.73,1.535-5.687,2.048c-1.907,0.01-3.813,0.02-5.72,0.03c-2.753-0.598-5.395-1.479-7.704-3.15
		c-0.411-0.297-0.83-0.376-1.297-0.387c-3.733-3.334-5.829-7.617-7.149-12.348c-0.028-0.288-0.056-0.575-0.084-0.863
		c0.003-2.063,0.007-4.127,0.01-6.19c0.66-2.192,1.319-4.385,1.979-6.578c0.712-0.488,1.115-1.18,1.322-2.001
		c1.334-1.412,2.668-2.824,4.002-4.236c0.523-0.204,1.003-0.468,1.321-0.956C71.166,8.269,72.794,7.483,74.423,6.697z
		 M83.936,25.246c3.089-2.564,6.121-5.202,9.294-7.658c1.444-1.118,0.957-1.781,0.093-2.95c-1.095-1.481-1.776-0.79-2.745,0.017
		c-3.385,2.82-6.597,5.849-10.167,8.446c-3.461-2.882-6.985-5.693-10.351-8.683c-1.215-1.079-1.713-0.684-2.551,0.326
		c-0.863,1.04-1.361,1.697,0.06,2.784c2.636,2.017,5.125,4.231,7.618,6.428c0.736,0.649,1.85,1.01,1.993,2.211
		c-3.344,2.792-6.661,5.618-10.046,8.36c-1.289,1.044-0.254,1.618,0.333,2.217c0.549,0.56,0.829,1.992,2.137,0.847
		c3.455-3.023,6.938-6.015,10.409-9.02c1.025-0.083,1.52,0.762,2.16,1.294c2.92,2.43,5.871,4.831,8.67,7.396
		c1.25,1.145,1.776,0.575,2.565-0.41c0.736-0.918,1.43-1.52,0.048-2.601c-2.928-2.291-5.72-4.757-8.524-7.201
		C84.425,26.607,83.359,26.339,83.936,25.246z"/>
	<path fill="#1F2B2D" d="M60.915,22.826c-0.003,2.063-0.007,4.127-0.01,6.19C60.154,26.952,60.142,24.888,60.915,22.826z"/>
	<path fill="#101718" d="M82.863,6.139c-1.905-0.012-3.811-0.023-5.716-0.035C79.056,5.426,80.962,5.376,82.863,6.139z"/>
	<path fill="#101718" d="M84.764,6.574c-0.561,0.067-1.069-0.076-1.534-0.39C83.782,6.153,84.349,6.063,84.764,6.574z"/>
	<path fill="#202E31" d="M77.139,45.764c1.907-0.01,3.813-0.02,5.72-0.03c-1.838,0.944-3.794,0.325-5.695,0.425
		C77.146,46.029,77.137,45.897,77.139,45.764z"/>
	<path fill="#180601" d="M80.013,28.57c-3.472,3.004-6.954,5.996-10.409,9.02c-1.308,1.144-1.588-0.287-2.137-0.847
		c-0.587-0.599-1.622-1.173-0.333-2.217c3.385-2.741,6.702-5.567,10.046-8.36c0.652-1.47,2.378-1.808,3.231-3.066
		c3.57-2.597,6.782-5.625,10.167-8.446c0.969-0.807,1.649-1.498,2.745-0.017c0.865,1.169,1.351,1.832-0.093,2.95
		c-3.172,2.457-6.204,5.094-9.294,7.658C82.707,26.447,81.677,27.883,80.013,28.57z"/>
	<path fill="#191002" d="M80.013,28.57c1.665-0.687,2.694-2.123,3.923-3.324c-0.577,1.093,0.489,1.361,0.995,1.802
		c2.804,2.444,5.596,4.911,8.524,7.201c1.382,1.081,0.688,1.682-0.048,2.601c-0.789,0.985-1.316,1.555-2.565,0.41
		c-2.799-2.565-5.749-4.966-8.67-7.396C81.532,29.332,81.038,28.487,80.013,28.57z"/>
	<path fill="#191002" d="M80.411,23.1c-0.854,1.257-2.579,1.596-3.231,3.066c-0.143-1.201-1.257-1.562-1.993-2.211
		c-2.493-2.197-4.981-4.411-7.618-6.428c-1.421-1.087-0.922-1.744-0.06-2.784c0.838-1.01,1.336-1.405,2.551-0.326
		C73.426,17.407,76.95,20.218,80.411,23.1z"/>
	<path fill="#FFFFFF" d="M1091,644.262c0,6.918-5.613,12.738-12.291,12.738H73.092C66.414,657,61,651.181,61,644.262V63.875
		C61,56.957,66.414,51,73.092,51h1005.617c6.678,0,12.291,5.957,12.291,12.875V644.262z"/>
	<text transform="matrix(1.0112 0 0 1 97.582 100.79)"><tspan x="0" y="0" font-family="'CourierNewPSMT'" font-size="26.3329">&gt;&gt;&gt; print welcome_msg</tspan><tspan x="0" y="31.6" fill="#FFB25C" font-family="'CourierNewPSMT'" font-size="26.3329">“Hey! Welcome to my site!”</tspan><tspan x="0" y="94.798" font-family="'CourierNewPSMT'" font-size="26.3329">&gt;&gt;&gt; print name</tspan><tspan x="0" y="126.398" fill="#FFB25C" font-family="'CourierNewPSMT'" font-size="26.3329">“Hi! I am Ridhwanul Haque”</tspan><tspan x="0" y="189.597" font-family="'CourierNewPSMT'" font-size="26.3329">&gt;&gt;&gt; print current_status</tspan><tspan x="0" y="221.196" fill="#FFB25C" font-family="'CourierNewPSMT'" font-size="26.3329">“I am currently doing internship as a Data Analyst</tspan><tspan x="0" y="252.796" fill="#FFB25C" font-family="'CourierNewPSMT'" font-size="26.3329">in Nourish Poultry &amp; Hatchery Ltd.”</tspan><tspan x="0" y="315.995" font-family="'CourierNewPSMT'" font-size="26.3329">&gt;&gt;&gt; print skills</tspan><tspan x="0" y="347.594" fill="#FFB25C" font-family="'CourierNewPSMT'" font-size="26.3329">“I am working to be specialised in AI, Machine Learning </tspan><tspan x="0" y="379.193" fill="#FFB25C" font-family="'CourierNewPSMT'" font-size="26.3329">and Data Science along with Web &amp; Android Dev Skills”</tspan><tspan x="0" y="442.393" font-family="'CourierNewPSMT'" font-size="26.3329">&gt;&gt;&gt; print info_msg</tspan><tspan x="0" y="473.992" fill="#FFB25C" font-family="'CourierNewPSMT'" font-size="26.3329">“ This is my site showcasing my work and projects that I have</tspan><tspan x="0" y="505.592" fill="#FFB25C" font-family="'CourierNewPSMT'" font-size="26.3329">been working on. I will also try to maintain a blog that will</tspan><tspan x="0" y="537.19" fill="#FFB25C" font-family="'CourierNewPSMT'" font-size="26.3329">mostly  consist of my work as well.”</tspan></text>
</g>
</svg>
